<mxfile host="Electron" agent="Mozilla/5.0 (X11; Linux x86_64) AppleWebKit/537.36 (KHTML, like Gecko) draw.io/26.0.9 Chrome/128.0.6613.186 Electron/32.2.5 Safari/537.36" version="26.0.9">
  <diagram name="Page-1" id="JroXlvnVQj0Wswi6IP8U">
    <mxGraphModel dx="3549" dy="1604" grid="0" gridSize="10" guides="1" tooltips="1" connect="1" arrows="1" fold="1" page="0" pageScale="1" pageWidth="850" pageHeight="1100" background="#FFFFFF" math="0" shadow="0" adaptiveColors="simple">
      <root>
        <mxCell id="0" />
        <mxCell id="1" parent="0" />
        <mxCell id="cpMW9dsYbDHmic7fBCKJ-1" value="role" style="shape=table;startSize=29;container=1;collapsible=1;childLayout=tableLayout;fixedRows=1;rowLines=0;fontStyle=1;align=center;resizeLast=1;html=1;labelBackgroundColor=none;rounded=1;fillColor=#F5AB50;strokeColor=#909090;fontColor=#1A1A1A;" parent="1" vertex="1">
          <mxGeometry x="-1038" y="-68" width="180" height="120" as="geometry" />
        </mxCell>
        <mxCell id="cpMW9dsYbDHmic7fBCKJ-2" value="" style="shape=tableRow;horizontal=0;startSize=0;swimlaneHead=0;swimlaneBody=0;fillColor=none;collapsible=0;dropTarget=0;points=[[0,0.5],[1,0.5]];portConstraint=eastwest;top=0;left=0;right=0;bottom=1;labelBackgroundColor=none;rounded=1;strokeColor=#909090;fontColor=#1A1A1A;" parent="cpMW9dsYbDHmic7fBCKJ-1" vertex="1">
          <mxGeometry y="29" width="180" height="30" as="geometry" />
        </mxCell>
        <mxCell id="cpMW9dsYbDHmic7fBCKJ-3" value="PK" style="shape=partialRectangle;connectable=0;fillColor=none;top=0;left=0;bottom=0;right=0;fontStyle=1;overflow=hidden;whiteSpace=wrap;html=1;labelBackgroundColor=none;rounded=1;strokeColor=#909090;fontColor=#1A1A1A;" parent="cpMW9dsYbDHmic7fBCKJ-2" vertex="1">
          <mxGeometry width="30" height="30" as="geometry">
            <mxRectangle width="30" height="30" as="alternateBounds" />
          </mxGeometry>
        </mxCell>
        <mxCell id="cpMW9dsYbDHmic7fBCKJ-4" value="id&lt;span style=&quot;white-space: pre;&quot;&gt;&#x9;&lt;/span&gt;" style="shape=partialRectangle;connectable=0;fillColor=none;top=0;left=0;bottom=0;right=0;align=left;spacingLeft=6;fontStyle=5;overflow=hidden;whiteSpace=wrap;html=1;labelBackgroundColor=none;rounded=1;strokeColor=#909090;fontColor=#1A1A1A;" parent="cpMW9dsYbDHmic7fBCKJ-2" vertex="1">
          <mxGeometry x="30" width="150" height="30" as="geometry">
            <mxRectangle width="150" height="30" as="alternateBounds" />
          </mxGeometry>
        </mxCell>
        <mxCell id="cpMW9dsYbDHmic7fBCKJ-5" value="" style="shape=tableRow;horizontal=0;startSize=0;swimlaneHead=0;swimlaneBody=0;fillColor=none;collapsible=0;dropTarget=0;points=[[0,0.5],[1,0.5]];portConstraint=eastwest;top=0;left=0;right=0;bottom=0;labelBackgroundColor=none;rounded=1;strokeColor=#909090;fontColor=#1A1A1A;" parent="cpMW9dsYbDHmic7fBCKJ-1" vertex="1">
          <mxGeometry y="59" width="180" height="30" as="geometry" />
        </mxCell>
        <mxCell id="cpMW9dsYbDHmic7fBCKJ-6" value="" style="shape=partialRectangle;connectable=0;fillColor=none;top=0;left=0;bottom=0;right=0;editable=1;overflow=hidden;whiteSpace=wrap;html=1;labelBackgroundColor=none;rounded=1;strokeColor=#909090;fontColor=#1A1A1A;" parent="cpMW9dsYbDHmic7fBCKJ-5" vertex="1">
          <mxGeometry width="30" height="30" as="geometry">
            <mxRectangle width="30" height="30" as="alternateBounds" />
          </mxGeometry>
        </mxCell>
        <mxCell id="cpMW9dsYbDHmic7fBCKJ-7" value="level" style="shape=partialRectangle;connectable=0;fillColor=none;top=0;left=0;bottom=0;right=0;align=left;spacingLeft=6;overflow=hidden;whiteSpace=wrap;html=1;labelBackgroundColor=none;rounded=1;strokeColor=#909090;fontColor=#1A1A1A;" parent="cpMW9dsYbDHmic7fBCKJ-5" vertex="1">
          <mxGeometry x="30" width="150" height="30" as="geometry">
            <mxRectangle width="150" height="30" as="alternateBounds" />
          </mxGeometry>
        </mxCell>
        <mxCell id="cpMW9dsYbDHmic7fBCKJ-8" value="" style="shape=tableRow;horizontal=0;startSize=0;swimlaneHead=0;swimlaneBody=0;fillColor=none;collapsible=0;dropTarget=0;points=[[0,0.5],[1,0.5]];portConstraint=eastwest;top=0;left=0;right=0;bottom=0;labelBackgroundColor=none;rounded=1;strokeColor=#909090;fontColor=#1A1A1A;" parent="cpMW9dsYbDHmic7fBCKJ-1" vertex="1">
          <mxGeometry y="89" width="180" height="30" as="geometry" />
        </mxCell>
        <mxCell id="cpMW9dsYbDHmic7fBCKJ-9" value="" style="shape=partialRectangle;connectable=0;fillColor=none;top=0;left=0;bottom=0;right=0;editable=1;overflow=hidden;whiteSpace=wrap;html=1;labelBackgroundColor=none;rounded=1;strokeColor=#909090;fontColor=#1A1A1A;" parent="cpMW9dsYbDHmic7fBCKJ-8" vertex="1">
          <mxGeometry width="30" height="30" as="geometry">
            <mxRectangle width="30" height="30" as="alternateBounds" />
          </mxGeometry>
        </mxCell>
        <mxCell id="cpMW9dsYbDHmic7fBCKJ-10" value="description" style="shape=partialRectangle;connectable=0;fillColor=none;top=0;left=0;bottom=0;right=0;align=left;spacingLeft=6;overflow=hidden;whiteSpace=wrap;html=1;labelBackgroundColor=none;rounded=1;strokeColor=#909090;fontColor=#1A1A1A;" parent="cpMW9dsYbDHmic7fBCKJ-8" vertex="1">
          <mxGeometry x="30" width="150" height="30" as="geometry">
            <mxRectangle width="150" height="30" as="alternateBounds" />
          </mxGeometry>
        </mxCell>
        <mxCell id="cpMW9dsYbDHmic7fBCKJ-14" value="employee" style="shape=table;startSize=29;container=1;collapsible=1;childLayout=tableLayout;fixedRows=1;rowLines=0;fontStyle=1;align=center;resizeLast=1;html=1;labelBackgroundColor=none;rounded=1;fillColor=#F5AB50;strokeColor=#909090;fontColor=#1A1A1A;" parent="1" vertex="1">
          <mxGeometry x="-298" y="70" width="180" height="210" as="geometry" />
        </mxCell>
        <mxCell id="cpMW9dsYbDHmic7fBCKJ-15" value="" style="shape=tableRow;horizontal=0;startSize=0;swimlaneHead=0;swimlaneBody=0;fillColor=none;collapsible=0;dropTarget=0;points=[[0,0.5],[1,0.5]];portConstraint=eastwest;top=0;left=0;right=0;bottom=1;labelBackgroundColor=none;rounded=1;strokeColor=#909090;fontColor=#1A1A1A;" parent="cpMW9dsYbDHmic7fBCKJ-14" vertex="1">
          <mxGeometry y="29" width="180" height="30" as="geometry" />
        </mxCell>
        <mxCell id="cpMW9dsYbDHmic7fBCKJ-16" value="PK" style="shape=partialRectangle;connectable=0;fillColor=none;top=0;left=0;bottom=0;right=0;fontStyle=1;overflow=hidden;whiteSpace=wrap;html=1;labelBackgroundColor=none;rounded=1;strokeColor=#909090;fontColor=#1A1A1A;" parent="cpMW9dsYbDHmic7fBCKJ-15" vertex="1">
          <mxGeometry width="30" height="30" as="geometry">
            <mxRectangle width="30" height="30" as="alternateBounds" />
          </mxGeometry>
        </mxCell>
        <mxCell id="cpMW9dsYbDHmic7fBCKJ-17" value="id" style="shape=partialRectangle;connectable=0;fillColor=none;top=0;left=0;bottom=0;right=0;align=left;spacingLeft=6;fontStyle=5;overflow=hidden;whiteSpace=wrap;html=1;labelBackgroundColor=none;rounded=1;strokeColor=#909090;fontColor=#1A1A1A;" parent="cpMW9dsYbDHmic7fBCKJ-15" vertex="1">
          <mxGeometry x="30" width="150" height="30" as="geometry">
            <mxRectangle width="150" height="30" as="alternateBounds" />
          </mxGeometry>
        </mxCell>
        <mxCell id="9TQ8Ru5qlqeJFAq3GtRZ-100" style="shape=tableRow;horizontal=0;startSize=0;swimlaneHead=0;swimlaneBody=0;fillColor=none;collapsible=0;dropTarget=0;points=[[0,0.5],[1,0.5]];portConstraint=eastwest;top=0;left=0;right=0;bottom=0;labelBackgroundColor=none;rounded=1;strokeColor=#909090;fontColor=#1A1A1A;" parent="cpMW9dsYbDHmic7fBCKJ-14" vertex="1">
          <mxGeometry y="59" width="180" height="30" as="geometry" />
        </mxCell>
        <mxCell id="9TQ8Ru5qlqeJFAq3GtRZ-101" value="FK" style="shape=partialRectangle;connectable=0;fillColor=none;top=0;left=0;bottom=0;right=0;editable=1;overflow=hidden;whiteSpace=wrap;html=1;labelBackgroundColor=none;rounded=1;strokeColor=#909090;fontColor=#1A1A1A;" parent="9TQ8Ru5qlqeJFAq3GtRZ-100" vertex="1">
          <mxGeometry width="30" height="30" as="geometry">
            <mxRectangle width="30" height="30" as="alternateBounds" />
          </mxGeometry>
        </mxCell>
        <mxCell id="9TQ8Ru5qlqeJFAq3GtRZ-102" value="user_id(users)" style="shape=partialRectangle;connectable=0;fillColor=none;top=0;left=0;bottom=0;right=0;align=left;spacingLeft=6;overflow=hidden;whiteSpace=wrap;html=1;labelBackgroundColor=none;rounded=1;strokeColor=#909090;fontColor=#1A1A1A;" parent="9TQ8Ru5qlqeJFAq3GtRZ-100" vertex="1">
          <mxGeometry x="30" width="150" height="30" as="geometry">
            <mxRectangle width="150" height="30" as="alternateBounds" />
          </mxGeometry>
        </mxCell>
        <mxCell id="cpMW9dsYbDHmic7fBCKJ-40" style="shape=tableRow;horizontal=0;startSize=0;swimlaneHead=0;swimlaneBody=0;fillColor=none;collapsible=0;dropTarget=0;points=[[0,0.5],[1,0.5]];portConstraint=eastwest;top=0;left=0;right=0;bottom=0;labelBackgroundColor=none;rounded=1;strokeColor=#909090;fontColor=#1A1A1A;" parent="cpMW9dsYbDHmic7fBCKJ-14" vertex="1">
          <mxGeometry y="89" width="180" height="30" as="geometry" />
        </mxCell>
        <mxCell id="cpMW9dsYbDHmic7fBCKJ-41" value="FK" style="shape=partialRectangle;connectable=0;fillColor=none;top=0;left=0;bottom=0;right=0;editable=1;overflow=hidden;whiteSpace=wrap;html=1;labelBackgroundColor=none;rounded=1;strokeColor=#909090;fontColor=#1A1A1A;" parent="cpMW9dsYbDHmic7fBCKJ-40" vertex="1">
          <mxGeometry width="30" height="30" as="geometry">
            <mxRectangle width="30" height="30" as="alternateBounds" />
          </mxGeometry>
        </mxCell>
        <mxCell id="cpMW9dsYbDHmic7fBCKJ-42" value="role_id(role)" style="shape=partialRectangle;connectable=0;fillColor=none;top=0;left=0;bottom=0;right=0;align=left;spacingLeft=6;overflow=hidden;whiteSpace=wrap;html=1;labelBackgroundColor=none;rounded=1;strokeColor=#909090;fontColor=#1A1A1A;" parent="cpMW9dsYbDHmic7fBCKJ-40" vertex="1">
          <mxGeometry x="30" width="150" height="30" as="geometry">
            <mxRectangle width="150" height="30" as="alternateBounds" />
          </mxGeometry>
        </mxCell>
        <mxCell id="cpMW9dsYbDHmic7fBCKJ-79" style="shape=tableRow;horizontal=0;startSize=0;swimlaneHead=0;swimlaneBody=0;fillColor=none;collapsible=0;dropTarget=0;points=[[0,0.5],[1,0.5]];portConstraint=eastwest;top=0;left=0;right=0;bottom=0;labelBackgroundColor=none;rounded=1;strokeColor=#909090;fontColor=#1A1A1A;" parent="cpMW9dsYbDHmic7fBCKJ-14" vertex="1">
          <mxGeometry y="119" width="180" height="30" as="geometry" />
        </mxCell>
        <mxCell id="cpMW9dsYbDHmic7fBCKJ-80" value="FK" style="shape=partialRectangle;connectable=0;fillColor=none;top=0;left=0;bottom=0;right=0;editable=1;overflow=hidden;whiteSpace=wrap;html=1;labelBackgroundColor=none;rounded=1;strokeColor=#909090;fontColor=#1A1A1A;" parent="cpMW9dsYbDHmic7fBCKJ-79" vertex="1">
          <mxGeometry width="30" height="30" as="geometry">
            <mxRectangle width="30" height="30" as="alternateBounds" />
          </mxGeometry>
        </mxCell>
        <mxCell id="cpMW9dsYbDHmic7fBCKJ-81" value="company_id(companies)" style="shape=partialRectangle;connectable=0;fillColor=none;top=0;left=0;bottom=0;right=0;align=left;spacingLeft=6;overflow=hidden;whiteSpace=wrap;html=1;labelBackgroundColor=none;rounded=1;strokeColor=#909090;fontColor=#1A1A1A;" parent="cpMW9dsYbDHmic7fBCKJ-79" vertex="1">
          <mxGeometry x="30" width="150" height="30" as="geometry">
            <mxRectangle width="150" height="30" as="alternateBounds" />
          </mxGeometry>
        </mxCell>
        <mxCell id="cpMW9dsYbDHmic7fBCKJ-170" style="shape=tableRow;horizontal=0;startSize=0;swimlaneHead=0;swimlaneBody=0;fillColor=none;collapsible=0;dropTarget=0;points=[[0,0.5],[1,0.5]];portConstraint=eastwest;top=0;left=0;right=0;bottom=0;labelBackgroundColor=none;rounded=1;strokeColor=#909090;fontColor=#1A1A1A;" parent="cpMW9dsYbDHmic7fBCKJ-14" vertex="1">
          <mxGeometry y="149" width="180" height="30" as="geometry" />
        </mxCell>
        <mxCell id="cpMW9dsYbDHmic7fBCKJ-171" value="FK" style="shape=partialRectangle;connectable=0;fillColor=none;top=0;left=0;bottom=0;right=0;editable=1;overflow=hidden;whiteSpace=wrap;html=1;labelBackgroundColor=none;rounded=1;strokeColor=#909090;fontColor=#1A1A1A;" parent="cpMW9dsYbDHmic7fBCKJ-170" vertex="1">
          <mxGeometry width="30" height="30" as="geometry">
            <mxRectangle width="30" height="30" as="alternateBounds" />
          </mxGeometry>
        </mxCell>
        <mxCell id="cpMW9dsYbDHmic7fBCKJ-172" value="permission_id(permission)" style="shape=partialRectangle;connectable=0;fillColor=none;top=0;left=0;bottom=0;right=0;align=left;spacingLeft=6;overflow=hidden;whiteSpace=wrap;html=1;labelBackgroundColor=none;rounded=1;strokeColor=#909090;fontColor=#1A1A1A;" parent="cpMW9dsYbDHmic7fBCKJ-170" vertex="1">
          <mxGeometry x="30" width="150" height="30" as="geometry">
            <mxRectangle width="150" height="30" as="alternateBounds" />
          </mxGeometry>
        </mxCell>
        <mxCell id="EQWb0ifCRzdz0aqyqIC9-24" style="shape=tableRow;horizontal=0;startSize=0;swimlaneHead=0;swimlaneBody=0;fillColor=none;collapsible=0;dropTarget=0;points=[[0,0.5],[1,0.5]];portConstraint=eastwest;top=0;left=0;right=0;bottom=0;labelBackgroundColor=none;rounded=1;strokeColor=#909090;fontColor=#1A1A1A;" vertex="1" parent="cpMW9dsYbDHmic7fBCKJ-14">
          <mxGeometry y="179" width="180" height="30" as="geometry" />
        </mxCell>
        <mxCell id="EQWb0ifCRzdz0aqyqIC9-25" value="FK" style="shape=partialRectangle;connectable=0;fillColor=none;top=0;left=0;bottom=0;right=0;editable=1;overflow=hidden;whiteSpace=wrap;html=1;labelBackgroundColor=none;rounded=1;strokeColor=#909090;fontColor=#1A1A1A;" vertex="1" parent="EQWb0ifCRzdz0aqyqIC9-24">
          <mxGeometry width="30" height="30" as="geometry">
            <mxRectangle width="30" height="30" as="alternateBounds" />
          </mxGeometry>
        </mxCell>
        <mxCell id="EQWb0ifCRzdz0aqyqIC9-26" value="badge_id(badge)" style="shape=partialRectangle;connectable=0;fillColor=none;top=0;left=0;bottom=0;right=0;align=left;spacingLeft=6;overflow=hidden;whiteSpace=wrap;html=1;labelBackgroundColor=none;rounded=1;strokeColor=#909090;fontColor=#1A1A1A;" vertex="1" parent="EQWb0ifCRzdz0aqyqIC9-24">
          <mxGeometry x="30" width="150" height="30" as="geometry">
            <mxRectangle width="150" height="30" as="alternateBounds" />
          </mxGeometry>
        </mxCell>
        <mxCell id="cpMW9dsYbDHmic7fBCKJ-27" value="transaction" style="shape=table;startSize=30;container=1;collapsible=1;childLayout=tableLayout;fixedRows=1;rowLines=0;fontStyle=1;align=center;resizeLast=1;html=1;labelBackgroundColor=none;rounded=1;fillColor=#F5AB50;strokeColor=#909090;fontColor=#1A1A1A;" parent="1" vertex="1">
          <mxGeometry x="-360" y="550" width="180" height="240" as="geometry" />
        </mxCell>
        <mxCell id="cpMW9dsYbDHmic7fBCKJ-28" value="" style="shape=tableRow;horizontal=0;startSize=0;swimlaneHead=0;swimlaneBody=0;fillColor=none;collapsible=0;dropTarget=0;points=[[0,0.5],[1,0.5]];portConstraint=eastwest;top=0;left=0;right=0;bottom=1;labelBackgroundColor=none;rounded=1;strokeColor=#909090;fontColor=#1A1A1A;" parent="cpMW9dsYbDHmic7fBCKJ-27" vertex="1">
          <mxGeometry y="30" width="180" height="30" as="geometry" />
        </mxCell>
        <mxCell id="cpMW9dsYbDHmic7fBCKJ-29" value="PK" style="shape=partialRectangle;connectable=0;fillColor=none;top=0;left=0;bottom=0;right=0;fontStyle=1;overflow=hidden;whiteSpace=wrap;html=1;labelBackgroundColor=none;rounded=1;strokeColor=#909090;fontColor=#1A1A1A;" parent="cpMW9dsYbDHmic7fBCKJ-28" vertex="1">
          <mxGeometry width="30" height="30" as="geometry">
            <mxRectangle width="30" height="30" as="alternateBounds" />
          </mxGeometry>
        </mxCell>
        <mxCell id="cpMW9dsYbDHmic7fBCKJ-30" value="id" style="shape=partialRectangle;connectable=0;fillColor=none;top=0;left=0;bottom=0;right=0;align=left;spacingLeft=6;fontStyle=5;overflow=hidden;whiteSpace=wrap;html=1;labelBackgroundColor=none;rounded=1;strokeColor=#909090;fontColor=#1A1A1A;" parent="cpMW9dsYbDHmic7fBCKJ-28" vertex="1">
          <mxGeometry x="30" width="150" height="30" as="geometry">
            <mxRectangle width="150" height="30" as="alternateBounds" />
          </mxGeometry>
        </mxCell>
        <mxCell id="cpMW9dsYbDHmic7fBCKJ-31" value="" style="shape=tableRow;horizontal=0;startSize=0;swimlaneHead=0;swimlaneBody=0;fillColor=none;collapsible=0;dropTarget=0;points=[[0,0.5],[1,0.5]];portConstraint=eastwest;top=0;left=0;right=0;bottom=0;labelBackgroundColor=none;rounded=1;strokeColor=#909090;fontColor=#1A1A1A;" parent="cpMW9dsYbDHmic7fBCKJ-27" vertex="1">
          <mxGeometry y="60" width="180" height="30" as="geometry" />
        </mxCell>
        <mxCell id="cpMW9dsYbDHmic7fBCKJ-32" value="" style="shape=partialRectangle;connectable=0;fillColor=none;top=0;left=0;bottom=0;right=0;editable=1;overflow=hidden;whiteSpace=wrap;html=1;labelBackgroundColor=none;rounded=1;strokeColor=#909090;fontColor=#1A1A1A;" parent="cpMW9dsYbDHmic7fBCKJ-31" vertex="1">
          <mxGeometry width="30" height="30" as="geometry">
            <mxRectangle width="30" height="30" as="alternateBounds" />
          </mxGeometry>
        </mxCell>
        <mxCell id="cpMW9dsYbDHmic7fBCKJ-33" value="date" style="shape=partialRectangle;connectable=0;fillColor=none;top=0;left=0;bottom=0;right=0;align=left;spacingLeft=6;overflow=hidden;whiteSpace=wrap;html=1;labelBackgroundColor=none;rounded=1;strokeColor=#909090;fontColor=#1A1A1A;" parent="cpMW9dsYbDHmic7fBCKJ-31" vertex="1">
          <mxGeometry x="30" width="150" height="30" as="geometry">
            <mxRectangle width="150" height="30" as="alternateBounds" />
          </mxGeometry>
        </mxCell>
        <mxCell id="cpMW9dsYbDHmic7fBCKJ-34" value="" style="shape=tableRow;horizontal=0;startSize=0;swimlaneHead=0;swimlaneBody=0;fillColor=none;collapsible=0;dropTarget=0;points=[[0,0.5],[1,0.5]];portConstraint=eastwest;top=0;left=0;right=0;bottom=0;labelBackgroundColor=none;rounded=1;strokeColor=#909090;fontColor=#1A1A1A;" parent="cpMW9dsYbDHmic7fBCKJ-27" vertex="1">
          <mxGeometry y="90" width="180" height="30" as="geometry" />
        </mxCell>
        <mxCell id="cpMW9dsYbDHmic7fBCKJ-35" value="" style="shape=partialRectangle;connectable=0;fillColor=none;top=0;left=0;bottom=0;right=0;editable=1;overflow=hidden;whiteSpace=wrap;html=1;labelBackgroundColor=none;rounded=1;strokeColor=#909090;fontColor=#1A1A1A;" parent="cpMW9dsYbDHmic7fBCKJ-34" vertex="1">
          <mxGeometry width="30" height="30" as="geometry">
            <mxRectangle width="30" height="30" as="alternateBounds" />
          </mxGeometry>
        </mxCell>
        <mxCell id="cpMW9dsYbDHmic7fBCKJ-36" value="enter_time" style="shape=partialRectangle;connectable=0;fillColor=none;top=0;left=0;bottom=0;right=0;align=left;spacingLeft=6;overflow=hidden;whiteSpace=wrap;html=1;labelBackgroundColor=none;rounded=1;strokeColor=#909090;fontColor=#1A1A1A;" parent="cpMW9dsYbDHmic7fBCKJ-34" vertex="1">
          <mxGeometry x="30" width="150" height="30" as="geometry">
            <mxRectangle width="150" height="30" as="alternateBounds" />
          </mxGeometry>
        </mxCell>
        <mxCell id="cpMW9dsYbDHmic7fBCKJ-37" value="" style="shape=tableRow;horizontal=0;startSize=0;swimlaneHead=0;swimlaneBody=0;fillColor=none;collapsible=0;dropTarget=0;points=[[0,0.5],[1,0.5]];portConstraint=eastwest;top=0;left=0;right=0;bottom=0;labelBackgroundColor=none;rounded=1;strokeColor=#909090;fontColor=#1A1A1A;" parent="cpMW9dsYbDHmic7fBCKJ-27" vertex="1">
          <mxGeometry y="120" width="180" height="30" as="geometry" />
        </mxCell>
        <mxCell id="cpMW9dsYbDHmic7fBCKJ-38" value="" style="shape=partialRectangle;connectable=0;fillColor=none;top=0;left=0;bottom=0;right=0;editable=1;overflow=hidden;whiteSpace=wrap;html=1;labelBackgroundColor=none;rounded=1;strokeColor=#909090;fontColor=#1A1A1A;" parent="cpMW9dsYbDHmic7fBCKJ-37" vertex="1">
          <mxGeometry width="30" height="30" as="geometry">
            <mxRectangle width="30" height="30" as="alternateBounds" />
          </mxGeometry>
        </mxCell>
        <mxCell id="cpMW9dsYbDHmic7fBCKJ-39" value="exit_time" style="shape=partialRectangle;connectable=0;fillColor=none;top=0;left=0;bottom=0;right=0;align=left;spacingLeft=6;overflow=hidden;whiteSpace=wrap;html=1;labelBackgroundColor=none;rounded=1;strokeColor=#909090;fontColor=#1A1A1A;" parent="cpMW9dsYbDHmic7fBCKJ-37" vertex="1">
          <mxGeometry x="30" width="150" height="30" as="geometry">
            <mxRectangle width="150" height="30" as="alternateBounds" />
          </mxGeometry>
        </mxCell>
        <mxCell id="cpMW9dsYbDHmic7fBCKJ-141" style="shape=tableRow;horizontal=0;startSize=0;swimlaneHead=0;swimlaneBody=0;fillColor=none;collapsible=0;dropTarget=0;points=[[0,0.5],[1,0.5]];portConstraint=eastwest;top=0;left=0;right=0;bottom=0;labelBackgroundColor=none;rounded=1;strokeColor=#909090;fontColor=#1A1A1A;" parent="cpMW9dsYbDHmic7fBCKJ-27" vertex="1">
          <mxGeometry y="150" width="180" height="30" as="geometry" />
        </mxCell>
        <mxCell id="cpMW9dsYbDHmic7fBCKJ-142" style="shape=partialRectangle;connectable=0;fillColor=none;top=0;left=0;bottom=0;right=0;editable=1;overflow=hidden;whiteSpace=wrap;html=1;labelBackgroundColor=none;rounded=1;strokeColor=#909090;fontColor=#1A1A1A;" parent="cpMW9dsYbDHmic7fBCKJ-141" vertex="1">
          <mxGeometry width="30" height="30" as="geometry">
            <mxRectangle width="30" height="30" as="alternateBounds" />
          </mxGeometry>
        </mxCell>
        <mxCell id="cpMW9dsYbDHmic7fBCKJ-143" value="current_state" style="shape=partialRectangle;connectable=0;fillColor=none;top=0;left=0;bottom=0;right=0;align=left;spacingLeft=6;overflow=hidden;whiteSpace=wrap;html=1;labelBackgroundColor=none;rounded=1;strokeColor=#909090;fontColor=#1A1A1A;" parent="cpMW9dsYbDHmic7fBCKJ-141" vertex="1">
          <mxGeometry x="30" width="150" height="30" as="geometry">
            <mxRectangle width="150" height="30" as="alternateBounds" />
          </mxGeometry>
        </mxCell>
        <mxCell id="cpMW9dsYbDHmic7fBCKJ-43" style="shape=tableRow;horizontal=0;startSize=0;swimlaneHead=0;swimlaneBody=0;fillColor=none;collapsible=0;dropTarget=0;points=[[0,0.5],[1,0.5]];portConstraint=eastwest;top=0;left=0;right=0;bottom=0;labelBackgroundColor=none;rounded=1;strokeColor=#909090;fontColor=#1A1A1A;" parent="cpMW9dsYbDHmic7fBCKJ-27" vertex="1">
          <mxGeometry y="180" width="180" height="30" as="geometry" />
        </mxCell>
        <mxCell id="cpMW9dsYbDHmic7fBCKJ-44" value="FK" style="shape=partialRectangle;connectable=0;fillColor=none;top=0;left=0;bottom=0;right=0;editable=1;overflow=hidden;whiteSpace=wrap;html=1;labelBackgroundColor=none;rounded=1;strokeColor=#909090;fontColor=#1A1A1A;" parent="cpMW9dsYbDHmic7fBCKJ-43" vertex="1">
          <mxGeometry width="30" height="30" as="geometry">
            <mxRectangle width="30" height="30" as="alternateBounds" />
          </mxGeometry>
        </mxCell>
        <mxCell id="cpMW9dsYbDHmic7fBCKJ-45" value="user_id(users)" style="shape=partialRectangle;connectable=0;fillColor=none;top=0;left=0;bottom=0;right=0;align=left;spacingLeft=6;overflow=hidden;whiteSpace=wrap;html=1;labelBackgroundColor=none;rounded=1;strokeColor=#909090;fontColor=#1A1A1A;" parent="cpMW9dsYbDHmic7fBCKJ-43" vertex="1">
          <mxGeometry x="30" width="150" height="30" as="geometry">
            <mxRectangle width="150" height="30" as="alternateBounds" />
          </mxGeometry>
        </mxCell>
        <mxCell id="cpMW9dsYbDHmic7fBCKJ-136" style="shape=tableRow;horizontal=0;startSize=0;swimlaneHead=0;swimlaneBody=0;fillColor=none;collapsible=0;dropTarget=0;points=[[0,0.5],[1,0.5]];portConstraint=eastwest;top=0;left=0;right=0;bottom=0;labelBackgroundColor=none;rounded=1;strokeColor=#909090;fontColor=#1A1A1A;" parent="cpMW9dsYbDHmic7fBCKJ-27" vertex="1">
          <mxGeometry y="210" width="180" height="30" as="geometry" />
        </mxCell>
        <mxCell id="cpMW9dsYbDHmic7fBCKJ-137" value="FK" style="shape=partialRectangle;connectable=0;fillColor=none;top=0;left=0;bottom=0;right=0;editable=1;overflow=hidden;whiteSpace=wrap;html=1;labelBackgroundColor=none;rounded=1;strokeColor=#909090;fontColor=#1A1A1A;" parent="cpMW9dsYbDHmic7fBCKJ-136" vertex="1">
          <mxGeometry width="30" height="30" as="geometry">
            <mxRectangle width="30" height="30" as="alternateBounds" />
          </mxGeometry>
        </mxCell>
        <mxCell id="cpMW9dsYbDHmic7fBCKJ-138" value="turnstile_id(turnstile)" style="shape=partialRectangle;connectable=0;fillColor=none;top=0;left=0;bottom=0;right=0;align=left;spacingLeft=6;overflow=hidden;whiteSpace=wrap;html=1;labelBackgroundColor=none;rounded=1;strokeColor=#909090;fontColor=#1A1A1A;" parent="cpMW9dsYbDHmic7fBCKJ-136" vertex="1">
          <mxGeometry x="30" width="150" height="30" as="geometry">
            <mxRectangle width="150" height="30" as="alternateBounds" />
          </mxGeometry>
        </mxCell>
        <mxCell id="cpMW9dsYbDHmic7fBCKJ-49" value="" style="edgeStyle=elbowEdgeStyle;fontSize=12;html=1;endArrow=ERoneToMany;rounded=1;exitX=1;exitY=0.5;exitDx=0;exitDy=0;entryX=0;entryY=0.5;entryDx=0;entryDy=0;labelBackgroundColor=none;fontColor=default;strokeColor=#182E3E;" parent="1" source="cpMW9dsYbDHmic7fBCKJ-2" target="cpMW9dsYbDHmic7fBCKJ-40" edge="1">
          <mxGeometry width="100" height="100" relative="1" as="geometry">
            <mxPoint x="-460" y="66.21000000000001" as="sourcePoint" />
            <mxPoint x="-370" y="363.73" as="targetPoint" />
            <Array as="points">
              <mxPoint x="-650" y="170" />
              <mxPoint x="-660" y="160" />
            </Array>
          </mxGeometry>
        </mxCell>
        <mxCell id="cpMW9dsYbDHmic7fBCKJ-52" value="" style="edgeStyle=elbowEdgeStyle;fontSize=12;html=1;endArrow=ERoneToMany;rounded=1;exitX=0;exitY=0.5;exitDx=0;exitDy=0;entryX=0;entryY=0.5;entryDx=0;entryDy=0;elbow=vertical;labelBackgroundColor=none;fontColor=default;strokeColor=#182E3E;" parent="1" source="9TQ8Ru5qlqeJFAq3GtRZ-79" target="cpMW9dsYbDHmic7fBCKJ-43" edge="1">
          <mxGeometry width="100" height="100" relative="1" as="geometry">
            <mxPoint x="-410" y="200" as="sourcePoint" />
            <mxPoint x="-380" y="630" as="targetPoint" />
            <Array as="points">
              <mxPoint x="-490" y="655" />
            </Array>
          </mxGeometry>
        </mxCell>
        <mxCell id="cpMW9dsYbDHmic7fBCKJ-53" value="inside_office" style="shape=table;startSize=30;container=1;collapsible=1;childLayout=tableLayout;fixedRows=1;rowLines=0;fontStyle=1;align=center;resizeLast=1;html=1;labelBackgroundColor=none;rounded=1;fillColor=#F5AB50;strokeColor=#909090;fontColor=#1A1A1A;" parent="1" vertex="1">
          <mxGeometry x="599" y="377" width="180" height="90" as="geometry" />
        </mxCell>
        <mxCell id="cpMW9dsYbDHmic7fBCKJ-54" value="" style="shape=tableRow;horizontal=0;startSize=0;swimlaneHead=0;swimlaneBody=0;fillColor=none;collapsible=0;dropTarget=0;points=[[0,0.5],[1,0.5]];portConstraint=eastwest;top=0;left=0;right=0;bottom=1;labelBackgroundColor=none;rounded=1;strokeColor=#909090;fontColor=#1A1A1A;" parent="cpMW9dsYbDHmic7fBCKJ-53" vertex="1">
          <mxGeometry y="30" width="180" height="30" as="geometry" />
        </mxCell>
        <mxCell id="cpMW9dsYbDHmic7fBCKJ-55" value="PK" style="shape=partialRectangle;connectable=0;fillColor=none;top=0;left=0;bottom=0;right=0;fontStyle=1;overflow=hidden;whiteSpace=wrap;html=1;labelBackgroundColor=none;rounded=1;strokeColor=#909090;fontColor=#1A1A1A;" parent="cpMW9dsYbDHmic7fBCKJ-54" vertex="1">
          <mxGeometry width="30" height="30" as="geometry">
            <mxRectangle width="30" height="30" as="alternateBounds" />
          </mxGeometry>
        </mxCell>
        <mxCell id="cpMW9dsYbDHmic7fBCKJ-56" value="id" style="shape=partialRectangle;connectable=0;fillColor=none;top=0;left=0;bottom=0;right=0;align=left;spacingLeft=6;fontStyle=5;overflow=hidden;whiteSpace=wrap;html=1;labelBackgroundColor=none;rounded=1;strokeColor=#909090;fontColor=#1A1A1A;" parent="cpMW9dsYbDHmic7fBCKJ-54" vertex="1">
          <mxGeometry x="30" width="150" height="30" as="geometry">
            <mxRectangle width="150" height="30" as="alternateBounds" />
          </mxGeometry>
        </mxCell>
        <mxCell id="cpMW9dsYbDHmic7fBCKJ-57" value="" style="shape=tableRow;horizontal=0;startSize=0;swimlaneHead=0;swimlaneBody=0;fillColor=none;collapsible=0;dropTarget=0;points=[[0,0.5],[1,0.5]];portConstraint=eastwest;top=0;left=0;right=0;bottom=0;labelBackgroundColor=none;rounded=1;strokeColor=#909090;fontColor=#1A1A1A;" parent="cpMW9dsYbDHmic7fBCKJ-53" vertex="1">
          <mxGeometry y="60" width="180" height="30" as="geometry" />
        </mxCell>
        <mxCell id="cpMW9dsYbDHmic7fBCKJ-58" value="FK" style="shape=partialRectangle;connectable=0;fillColor=none;top=0;left=0;bottom=0;right=0;editable=1;overflow=hidden;whiteSpace=wrap;html=1;labelBackgroundColor=none;rounded=1;strokeColor=#909090;fontColor=#1A1A1A;" parent="cpMW9dsYbDHmic7fBCKJ-57" vertex="1">
          <mxGeometry width="30" height="30" as="geometry">
            <mxRectangle width="30" height="30" as="alternateBounds" />
          </mxGeometry>
        </mxCell>
        <mxCell id="cpMW9dsYbDHmic7fBCKJ-59" value="user_id(users)" style="shape=partialRectangle;connectable=0;fillColor=none;top=0;left=0;bottom=0;right=0;align=left;spacingLeft=6;overflow=hidden;whiteSpace=wrap;html=1;labelBackgroundColor=none;rounded=1;strokeColor=#909090;fontColor=#1A1A1A;" parent="cpMW9dsYbDHmic7fBCKJ-57" vertex="1">
          <mxGeometry x="30" width="150" height="30" as="geometry">
            <mxRectangle width="150" height="30" as="alternateBounds" />
          </mxGeometry>
        </mxCell>
        <mxCell id="cpMW9dsYbDHmic7fBCKJ-66" value="company" style="shape=table;startSize=30;container=1;collapsible=1;childLayout=tableLayout;fixedRows=1;rowLines=0;fontStyle=1;align=center;resizeLast=1;html=1;labelBackgroundColor=none;rounded=1;fillColor=#F5AB50;strokeColor=#909090;fontColor=#1A1A1A;" parent="1" vertex="1">
          <mxGeometry x="-1035" y="116" width="180" height="120" as="geometry" />
        </mxCell>
        <mxCell id="cpMW9dsYbDHmic7fBCKJ-67" value="" style="shape=tableRow;horizontal=0;startSize=0;swimlaneHead=0;swimlaneBody=0;fillColor=none;collapsible=0;dropTarget=0;points=[[0,0.5],[1,0.5]];portConstraint=eastwest;top=0;left=0;right=0;bottom=1;labelBackgroundColor=none;rounded=1;strokeColor=#909090;fontColor=#1A1A1A;" parent="cpMW9dsYbDHmic7fBCKJ-66" vertex="1">
          <mxGeometry y="30" width="180" height="30" as="geometry" />
        </mxCell>
        <mxCell id="cpMW9dsYbDHmic7fBCKJ-68" value="PK" style="shape=partialRectangle;connectable=0;fillColor=none;top=0;left=0;bottom=0;right=0;fontStyle=1;overflow=hidden;whiteSpace=wrap;html=1;labelBackgroundColor=none;rounded=1;strokeColor=#909090;fontColor=#1A1A1A;" parent="cpMW9dsYbDHmic7fBCKJ-67" vertex="1">
          <mxGeometry width="30" height="30" as="geometry">
            <mxRectangle width="30" height="30" as="alternateBounds" />
          </mxGeometry>
        </mxCell>
        <mxCell id="cpMW9dsYbDHmic7fBCKJ-69" value="id" style="shape=partialRectangle;connectable=0;fillColor=none;top=0;left=0;bottom=0;right=0;align=left;spacingLeft=6;fontStyle=5;overflow=hidden;whiteSpace=wrap;html=1;labelBackgroundColor=none;rounded=1;strokeColor=#909090;fontColor=#1A1A1A;" parent="cpMW9dsYbDHmic7fBCKJ-67" vertex="1">
          <mxGeometry x="30" width="150" height="30" as="geometry">
            <mxRectangle width="150" height="30" as="alternateBounds" />
          </mxGeometry>
        </mxCell>
        <mxCell id="cpMW9dsYbDHmic7fBCKJ-70" value="" style="shape=tableRow;horizontal=0;startSize=0;swimlaneHead=0;swimlaneBody=0;fillColor=none;collapsible=0;dropTarget=0;points=[[0,0.5],[1,0.5]];portConstraint=eastwest;top=0;left=0;right=0;bottom=0;labelBackgroundColor=none;rounded=1;strokeColor=#909090;fontColor=#1A1A1A;" parent="cpMW9dsYbDHmic7fBCKJ-66" vertex="1">
          <mxGeometry y="60" width="180" height="30" as="geometry" />
        </mxCell>
        <mxCell id="cpMW9dsYbDHmic7fBCKJ-71" value="" style="shape=partialRectangle;connectable=0;fillColor=none;top=0;left=0;bottom=0;right=0;editable=1;overflow=hidden;whiteSpace=wrap;html=1;labelBackgroundColor=none;rounded=1;strokeColor=#909090;fontColor=#1A1A1A;" parent="cpMW9dsYbDHmic7fBCKJ-70" vertex="1">
          <mxGeometry width="30" height="30" as="geometry">
            <mxRectangle width="30" height="30" as="alternateBounds" />
          </mxGeometry>
        </mxCell>
        <mxCell id="cpMW9dsYbDHmic7fBCKJ-72" value="company_name" style="shape=partialRectangle;connectable=0;fillColor=none;top=0;left=0;bottom=0;right=0;align=left;spacingLeft=6;overflow=hidden;whiteSpace=wrap;html=1;labelBackgroundColor=none;rounded=1;strokeColor=#909090;fontColor=#1A1A1A;" parent="cpMW9dsYbDHmic7fBCKJ-70" vertex="1">
          <mxGeometry x="30" width="150" height="30" as="geometry">
            <mxRectangle width="150" height="30" as="alternateBounds" />
          </mxGeometry>
        </mxCell>
        <mxCell id="cpMW9dsYbDHmic7fBCKJ-73" value="" style="shape=tableRow;horizontal=0;startSize=0;swimlaneHead=0;swimlaneBody=0;fillColor=none;collapsible=0;dropTarget=0;points=[[0,0.5],[1,0.5]];portConstraint=eastwest;top=0;left=0;right=0;bottom=0;labelBackgroundColor=none;rounded=1;strokeColor=#909090;fontColor=#1A1A1A;" parent="cpMW9dsYbDHmic7fBCKJ-66" vertex="1">
          <mxGeometry y="90" width="180" height="30" as="geometry" />
        </mxCell>
        <mxCell id="cpMW9dsYbDHmic7fBCKJ-74" value="" style="shape=partialRectangle;connectable=0;fillColor=none;top=0;left=0;bottom=0;right=0;editable=1;overflow=hidden;whiteSpace=wrap;html=1;labelBackgroundColor=none;rounded=1;strokeColor=#909090;fontColor=#1A1A1A;" parent="cpMW9dsYbDHmic7fBCKJ-73" vertex="1">
          <mxGeometry width="30" height="30" as="geometry">
            <mxRectangle width="30" height="30" as="alternateBounds" />
          </mxGeometry>
        </mxCell>
        <mxCell id="cpMW9dsYbDHmic7fBCKJ-75" value="address" style="shape=partialRectangle;connectable=0;fillColor=none;top=0;left=0;bottom=0;right=0;align=left;spacingLeft=6;overflow=hidden;whiteSpace=wrap;html=1;labelBackgroundColor=none;rounded=1;strokeColor=#909090;fontColor=#1A1A1A;" parent="cpMW9dsYbDHmic7fBCKJ-73" vertex="1">
          <mxGeometry x="30" width="150" height="30" as="geometry">
            <mxRectangle width="150" height="30" as="alternateBounds" />
          </mxGeometry>
        </mxCell>
        <mxCell id="cpMW9dsYbDHmic7fBCKJ-83" value="" style="edgeStyle=orthogonalEdgeStyle;fontSize=12;html=1;endArrow=ERoneToMany;rounded=1;exitX=1;exitY=0.5;exitDx=0;exitDy=0;entryX=0;entryY=0.5;entryDx=0;entryDy=0;labelBackgroundColor=none;fontColor=default;strokeColor=#182E3E;" parent="1" source="cpMW9dsYbDHmic7fBCKJ-67" target="cpMW9dsYbDHmic7fBCKJ-79" edge="1">
          <mxGeometry width="100" height="100" relative="1" as="geometry">
            <mxPoint x="-750" y="355" as="sourcePoint" />
            <mxPoint x="-650" y="255" as="targetPoint" />
            <Array as="points">
              <mxPoint x="-855" y="163" />
              <mxPoint x="-745" y="163" />
              <mxPoint x="-745" y="204" />
            </Array>
          </mxGeometry>
        </mxCell>
        <mxCell id="cpMW9dsYbDHmic7fBCKJ-196" value="" style="edgeLabel;html=1;align=center;verticalAlign=middle;resizable=0;points=[];strokeColor=#909090;fontColor=#1A1A1A;fillColor=#F5AB50;labelBackgroundColor=none;" parent="cpMW9dsYbDHmic7fBCKJ-83" vertex="1" connectable="0">
          <mxGeometry x="-0.0527" y="2" relative="1" as="geometry">
            <mxPoint y="1" as="offset" />
          </mxGeometry>
        </mxCell>
        <mxCell id="cpMW9dsYbDHmic7fBCKJ-84" value="error_log" style="shape=table;startSize=30;container=1;collapsible=1;childLayout=tableLayout;fixedRows=1;rowLines=0;fontStyle=1;align=center;resizeLast=1;html=1;labelBackgroundColor=none;rounded=1;fillColor=#F5AB50;strokeColor=#909090;fontColor=#1A1A1A;" parent="1" vertex="1">
          <mxGeometry x="-360" y="830" width="180" height="210" as="geometry" />
        </mxCell>
        <mxCell id="cpMW9dsYbDHmic7fBCKJ-85" value="" style="shape=tableRow;horizontal=0;startSize=0;swimlaneHead=0;swimlaneBody=0;fillColor=none;collapsible=0;dropTarget=0;points=[[0,0.5],[1,0.5]];portConstraint=eastwest;top=0;left=0;right=0;bottom=1;flipV=0;flipH=1;labelBackgroundColor=none;rounded=1;strokeColor=#909090;fontColor=#1A1A1A;" parent="cpMW9dsYbDHmic7fBCKJ-84" vertex="1">
          <mxGeometry y="30" width="180" height="30" as="geometry" />
        </mxCell>
        <mxCell id="cpMW9dsYbDHmic7fBCKJ-86" value="PK" style="shape=partialRectangle;connectable=0;fillColor=none;top=0;left=0;bottom=0;right=0;fontStyle=1;overflow=hidden;whiteSpace=wrap;html=1;labelBackgroundColor=none;rounded=1;strokeColor=#909090;fontColor=#1A1A1A;" parent="cpMW9dsYbDHmic7fBCKJ-85" vertex="1">
          <mxGeometry width="30" height="30" as="geometry">
            <mxRectangle width="30" height="30" as="alternateBounds" />
          </mxGeometry>
        </mxCell>
        <mxCell id="cpMW9dsYbDHmic7fBCKJ-87" value="id" style="shape=partialRectangle;connectable=0;fillColor=none;top=0;left=0;bottom=0;right=0;align=left;spacingLeft=6;fontStyle=5;overflow=hidden;whiteSpace=wrap;html=1;labelBackgroundColor=none;rounded=1;strokeColor=#909090;fontColor=#1A1A1A;" parent="cpMW9dsYbDHmic7fBCKJ-85" vertex="1">
          <mxGeometry x="30" width="150" height="30" as="geometry">
            <mxRectangle width="150" height="30" as="alternateBounds" />
          </mxGeometry>
        </mxCell>
        <mxCell id="cpMW9dsYbDHmic7fBCKJ-88" value="" style="shape=tableRow;horizontal=0;startSize=0;swimlaneHead=0;swimlaneBody=0;fillColor=none;collapsible=0;dropTarget=0;points=[[0,0.5],[1,0.5]];portConstraint=eastwest;top=0;left=0;right=0;bottom=0;flipV=0;flipH=1;labelBackgroundColor=none;rounded=1;strokeColor=#909090;fontColor=#1A1A1A;" parent="cpMW9dsYbDHmic7fBCKJ-84" vertex="1">
          <mxGeometry y="60" width="180" height="30" as="geometry" />
        </mxCell>
        <mxCell id="cpMW9dsYbDHmic7fBCKJ-89" value="" style="shape=partialRectangle;connectable=0;fillColor=none;top=0;left=0;bottom=0;right=0;editable=1;overflow=hidden;whiteSpace=wrap;html=1;labelBackgroundColor=none;rounded=1;strokeColor=#909090;fontColor=#1A1A1A;" parent="cpMW9dsYbDHmic7fBCKJ-88" vertex="1">
          <mxGeometry width="30" height="30" as="geometry">
            <mxRectangle width="30" height="30" as="alternateBounds" />
          </mxGeometry>
        </mxCell>
        <mxCell id="cpMW9dsYbDHmic7fBCKJ-90" value="date" style="shape=partialRectangle;connectable=0;fillColor=none;top=0;left=0;bottom=0;right=0;align=left;spacingLeft=6;overflow=hidden;whiteSpace=wrap;html=1;labelBackgroundColor=none;rounded=1;strokeColor=#909090;fontColor=#1A1A1A;" parent="cpMW9dsYbDHmic7fBCKJ-88" vertex="1">
          <mxGeometry x="30" width="150" height="30" as="geometry">
            <mxRectangle width="150" height="30" as="alternateBounds" />
          </mxGeometry>
        </mxCell>
        <mxCell id="9TQ8Ru5qlqeJFAq3GtRZ-34" style="shape=tableRow;horizontal=0;startSize=0;swimlaneHead=0;swimlaneBody=0;fillColor=none;collapsible=0;dropTarget=0;points=[[0,0.5],[1,0.5]];portConstraint=eastwest;top=0;left=0;right=0;bottom=0;flipV=0;flipH=1;labelBackgroundColor=none;rounded=1;strokeColor=#909090;fontColor=#1A1A1A;" parent="cpMW9dsYbDHmic7fBCKJ-84" vertex="1">
          <mxGeometry y="90" width="180" height="30" as="geometry" />
        </mxCell>
        <mxCell id="9TQ8Ru5qlqeJFAq3GtRZ-35" style="shape=partialRectangle;connectable=0;fillColor=none;top=0;left=0;bottom=0;right=0;editable=1;overflow=hidden;whiteSpace=wrap;html=1;labelBackgroundColor=none;rounded=1;strokeColor=#909090;fontColor=#1A1A1A;" parent="9TQ8Ru5qlqeJFAq3GtRZ-34" vertex="1">
          <mxGeometry width="30" height="30" as="geometry">
            <mxRectangle width="30" height="30" as="alternateBounds" />
          </mxGeometry>
        </mxCell>
        <mxCell id="9TQ8Ru5qlqeJFAq3GtRZ-36" value="created_at" style="shape=partialRectangle;connectable=0;fillColor=none;top=0;left=0;bottom=0;right=0;align=left;spacingLeft=6;overflow=hidden;whiteSpace=wrap;html=1;labelBackgroundColor=none;rounded=1;strokeColor=#909090;fontColor=#1A1A1A;" parent="9TQ8Ru5qlqeJFAq3GtRZ-34" vertex="1">
          <mxGeometry x="30" width="150" height="30" as="geometry">
            <mxRectangle width="150" height="30" as="alternateBounds" />
          </mxGeometry>
        </mxCell>
        <mxCell id="cpMW9dsYbDHmic7fBCKJ-91" value="" style="shape=tableRow;horizontal=0;startSize=0;swimlaneHead=0;swimlaneBody=0;fillColor=none;collapsible=0;dropTarget=0;points=[[0,0.5],[1,0.5]];portConstraint=eastwest;top=0;left=0;right=0;bottom=0;flipV=0;flipH=1;labelBackgroundColor=none;rounded=1;strokeColor=#909090;fontColor=#1A1A1A;" parent="cpMW9dsYbDHmic7fBCKJ-84" vertex="1">
          <mxGeometry y="120" width="180" height="30" as="geometry" />
        </mxCell>
        <mxCell id="cpMW9dsYbDHmic7fBCKJ-92" value="" style="shape=partialRectangle;connectable=0;fillColor=none;top=0;left=0;bottom=0;right=0;editable=1;overflow=hidden;whiteSpace=wrap;html=1;labelBackgroundColor=none;rounded=1;strokeColor=#909090;fontColor=#1A1A1A;" parent="cpMW9dsYbDHmic7fBCKJ-91" vertex="1">
          <mxGeometry width="30" height="30" as="geometry">
            <mxRectangle width="30" height="30" as="alternateBounds" />
          </mxGeometry>
        </mxCell>
        <mxCell id="cpMW9dsYbDHmic7fBCKJ-93" value="error_message" style="shape=partialRectangle;connectable=0;fillColor=none;top=0;left=0;bottom=0;right=0;align=left;spacingLeft=6;overflow=hidden;whiteSpace=wrap;html=1;labelBackgroundColor=none;rounded=1;strokeColor=#909090;fontColor=#1A1A1A;" parent="cpMW9dsYbDHmic7fBCKJ-91" vertex="1">
          <mxGeometry x="30" width="150" height="30" as="geometry">
            <mxRectangle width="150" height="30" as="alternateBounds" />
          </mxGeometry>
        </mxCell>
        <mxCell id="cpMW9dsYbDHmic7fBCKJ-94" value="" style="shape=tableRow;horizontal=0;startSize=0;swimlaneHead=0;swimlaneBody=0;fillColor=none;collapsible=0;dropTarget=0;points=[[0,0.5],[1,0.5]];portConstraint=eastwest;top=0;left=0;right=0;bottom=0;labelBackgroundColor=none;rounded=1;strokeColor=#909090;fontColor=#1A1A1A;" parent="cpMW9dsYbDHmic7fBCKJ-84" vertex="1">
          <mxGeometry y="150" width="180" height="30" as="geometry" />
        </mxCell>
        <mxCell id="cpMW9dsYbDHmic7fBCKJ-95" value="FK" style="shape=partialRectangle;connectable=0;fillColor=none;top=0;left=0;bottom=0;right=0;editable=1;overflow=hidden;whiteSpace=wrap;html=1;labelBackgroundColor=none;rounded=1;strokeColor=#909090;fontColor=#1A1A1A;" parent="cpMW9dsYbDHmic7fBCKJ-94" vertex="1">
          <mxGeometry width="30" height="30" as="geometry">
            <mxRectangle width="30" height="30" as="alternateBounds" />
          </mxGeometry>
        </mxCell>
        <mxCell id="cpMW9dsYbDHmic7fBCKJ-96" value="user_id(users)" style="shape=partialRectangle;connectable=0;fillColor=none;top=0;left=0;bottom=0;right=0;align=left;spacingLeft=6;overflow=hidden;whiteSpace=wrap;html=1;labelBackgroundColor=none;rounded=1;strokeColor=#909090;fontColor=#1A1A1A;" parent="cpMW9dsYbDHmic7fBCKJ-94" vertex="1">
          <mxGeometry x="30" width="150" height="30" as="geometry">
            <mxRectangle width="150" height="30" as="alternateBounds" />
          </mxGeometry>
        </mxCell>
        <mxCell id="cpMW9dsYbDHmic7fBCKJ-97" style="shape=tableRow;horizontal=0;startSize=0;swimlaneHead=0;swimlaneBody=0;fillColor=none;collapsible=0;dropTarget=0;points=[[0,0.5],[1,0.5]];portConstraint=eastwest;top=0;left=0;right=0;bottom=0;labelBackgroundColor=none;rounded=1;strokeColor=#909090;fontColor=#1A1A1A;" parent="cpMW9dsYbDHmic7fBCKJ-84" vertex="1">
          <mxGeometry y="180" width="180" height="30" as="geometry" />
        </mxCell>
        <mxCell id="cpMW9dsYbDHmic7fBCKJ-98" value="FK" style="shape=partialRectangle;connectable=0;fillColor=none;top=0;left=0;bottom=0;right=0;editable=1;overflow=hidden;whiteSpace=wrap;html=1;labelBackgroundColor=none;rounded=1;strokeColor=#909090;fontColor=#1A1A1A;" parent="cpMW9dsYbDHmic7fBCKJ-97" vertex="1">
          <mxGeometry width="30" height="30" as="geometry">
            <mxRectangle width="30" height="30" as="alternateBounds" />
          </mxGeometry>
        </mxCell>
        <mxCell id="cpMW9dsYbDHmic7fBCKJ-99" value="turnstile_id(turnstile)" style="shape=partialRectangle;connectable=0;fillColor=none;top=0;left=0;bottom=0;right=0;align=left;spacingLeft=6;overflow=hidden;whiteSpace=wrap;html=1;labelBackgroundColor=none;rounded=1;strokeColor=#909090;fontColor=#1A1A1A;" parent="cpMW9dsYbDHmic7fBCKJ-97" vertex="1">
          <mxGeometry x="30" width="150" height="30" as="geometry">
            <mxRectangle width="150" height="30" as="alternateBounds" />
          </mxGeometry>
        </mxCell>
        <mxCell id="cpMW9dsYbDHmic7fBCKJ-126" value="turnstile" style="shape=table;startSize=30;container=1;collapsible=1;childLayout=tableLayout;fixedRows=1;rowLines=0;fontStyle=1;align=center;resizeLast=1;html=1;labelBackgroundColor=none;rounded=1;fillColor=#F5AB50;strokeColor=#909090;fontColor=#1A1A1A;" parent="1" vertex="1">
          <mxGeometry x="-1038" y="769" width="180" height="90" as="geometry" />
        </mxCell>
        <mxCell id="cpMW9dsYbDHmic7fBCKJ-127" value="" style="shape=tableRow;horizontal=0;startSize=0;swimlaneHead=0;swimlaneBody=0;fillColor=none;collapsible=0;dropTarget=0;points=[[0,0.5],[1,0.5]];portConstraint=eastwest;top=0;left=0;right=0;bottom=1;labelBackgroundColor=none;rounded=1;strokeColor=#909090;fontColor=#1A1A1A;" parent="cpMW9dsYbDHmic7fBCKJ-126" vertex="1">
          <mxGeometry y="30" width="180" height="30" as="geometry" />
        </mxCell>
        <mxCell id="cpMW9dsYbDHmic7fBCKJ-128" value="PK" style="shape=partialRectangle;connectable=0;fillColor=none;top=0;left=0;bottom=0;right=0;fontStyle=1;overflow=hidden;whiteSpace=wrap;html=1;labelBackgroundColor=none;rounded=1;strokeColor=#909090;fontColor=#1A1A1A;" parent="cpMW9dsYbDHmic7fBCKJ-127" vertex="1">
          <mxGeometry width="30" height="30" as="geometry">
            <mxRectangle width="30" height="30" as="alternateBounds" />
          </mxGeometry>
        </mxCell>
        <mxCell id="cpMW9dsYbDHmic7fBCKJ-129" value="id&lt;span style=&quot;white-space: pre;&quot;&gt;&#x9;&lt;/span&gt;" style="shape=partialRectangle;connectable=0;fillColor=none;top=0;left=0;bottom=0;right=0;align=left;spacingLeft=6;fontStyle=5;overflow=hidden;whiteSpace=wrap;html=1;labelBackgroundColor=none;rounded=1;strokeColor=#909090;fontColor=#1A1A1A;" parent="cpMW9dsYbDHmic7fBCKJ-127" vertex="1">
          <mxGeometry x="30" width="150" height="30" as="geometry">
            <mxRectangle width="150" height="30" as="alternateBounds" />
          </mxGeometry>
        </mxCell>
        <mxCell id="cpMW9dsYbDHmic7fBCKJ-130" value="" style="shape=tableRow;horizontal=0;startSize=0;swimlaneHead=0;swimlaneBody=0;fillColor=none;collapsible=0;dropTarget=0;points=[[0,0.5],[1,0.5]];portConstraint=eastwest;top=0;left=0;right=0;bottom=0;labelBackgroundColor=none;rounded=1;strokeColor=#909090;fontColor=#1A1A1A;" parent="cpMW9dsYbDHmic7fBCKJ-126" vertex="1">
          <mxGeometry y="60" width="180" height="30" as="geometry" />
        </mxCell>
        <mxCell id="cpMW9dsYbDHmic7fBCKJ-131" value="" style="shape=partialRectangle;connectable=0;fillColor=none;top=0;left=0;bottom=0;right=0;editable=1;overflow=hidden;whiteSpace=wrap;html=1;labelBackgroundColor=none;rounded=1;strokeColor=#909090;fontColor=#1A1A1A;" parent="cpMW9dsYbDHmic7fBCKJ-130" vertex="1">
          <mxGeometry width="30" height="30" as="geometry">
            <mxRectangle width="30" height="30" as="alternateBounds" />
          </mxGeometry>
        </mxCell>
        <mxCell id="cpMW9dsYbDHmic7fBCKJ-132" value="available" style="shape=partialRectangle;connectable=0;fillColor=none;top=0;left=0;bottom=0;right=0;align=left;spacingLeft=6;overflow=hidden;whiteSpace=wrap;html=1;labelBackgroundColor=none;rounded=1;strokeColor=#909090;fontColor=#1A1A1A;" parent="cpMW9dsYbDHmic7fBCKJ-130" vertex="1">
          <mxGeometry x="30" width="150" height="30" as="geometry">
            <mxRectangle width="150" height="30" as="alternateBounds" />
          </mxGeometry>
        </mxCell>
        <mxCell id="cpMW9dsYbDHmic7fBCKJ-140" value="" style="edgeStyle=elbowEdgeStyle;fontSize=12;html=1;endArrow=ERoneToMany;rounded=1;exitX=1;exitY=0.5;exitDx=0;exitDy=0;entryX=0;entryY=0.5;entryDx=0;entryDy=0;elbow=vertical;labelBackgroundColor=none;fontColor=default;strokeColor=#182E3E;" parent="1" source="cpMW9dsYbDHmic7fBCKJ-127" target="cpMW9dsYbDHmic7fBCKJ-136" edge="1">
          <mxGeometry width="100" height="100" relative="1" as="geometry">
            <mxPoint x="-460" y="520" as="sourcePoint" />
            <mxPoint x="-570" y="730" as="targetPoint" />
          </mxGeometry>
        </mxCell>
        <mxCell id="cpMW9dsYbDHmic7fBCKJ-156" value="" style="edgeStyle=elbowEdgeStyle;fontSize=12;html=1;endArrow=ERoneToMany;rounded=1;exitX=1;exitY=0.5;exitDx=0;exitDy=0;entryX=0;entryY=0.5;entryDx=0;entryDy=0;elbow=horizontal;labelBackgroundColor=none;fontColor=default;strokeColor=#182E3E;" parent="1" source="cpMW9dsYbDHmic7fBCKJ-127" target="cpMW9dsYbDHmic7fBCKJ-97" edge="1">
          <mxGeometry width="100" height="100" relative="1" as="geometry">
            <mxPoint x="-920" y="1000" as="sourcePoint" />
            <mxPoint x="-410" y="1000" as="targetPoint" />
            <Array as="points">
              <mxPoint x="-674" y="979" />
            </Array>
          </mxGeometry>
        </mxCell>
        <mxCell id="cpMW9dsYbDHmic7fBCKJ-157" value="permissions" style="shape=table;startSize=30;container=1;collapsible=1;childLayout=tableLayout;fixedRows=1;rowLines=0;fontStyle=1;align=center;resizeLast=1;html=1;labelBackgroundColor=none;rounded=1;fillColor=#F5AB50;strokeColor=#909090;fontColor=#1A1A1A;" parent="1" vertex="1">
          <mxGeometry x="-1035" y="301" width="180" height="184" as="geometry" />
        </mxCell>
        <mxCell id="cpMW9dsYbDHmic7fBCKJ-158" value="" style="shape=tableRow;horizontal=0;startSize=0;swimlaneHead=0;swimlaneBody=0;fillColor=none;collapsible=0;dropTarget=0;points=[[0,0.5],[1,0.5]];portConstraint=eastwest;top=0;left=0;right=0;bottom=1;labelBackgroundColor=none;rounded=1;strokeColor=#909090;fontColor=#1A1A1A;" parent="cpMW9dsYbDHmic7fBCKJ-157" vertex="1">
          <mxGeometry y="30" width="180" height="30" as="geometry" />
        </mxCell>
        <mxCell id="cpMW9dsYbDHmic7fBCKJ-159" value="PK" style="shape=partialRectangle;connectable=0;fillColor=none;top=0;left=0;bottom=0;right=0;fontStyle=1;overflow=hidden;whiteSpace=wrap;html=1;labelBackgroundColor=none;rounded=1;strokeColor=#909090;fontColor=#1A1A1A;" parent="cpMW9dsYbDHmic7fBCKJ-158" vertex="1">
          <mxGeometry width="28.47368421052647" height="30" as="geometry">
            <mxRectangle width="28.47368421052647" height="30" as="alternateBounds" />
          </mxGeometry>
        </mxCell>
        <mxCell id="cpMW9dsYbDHmic7fBCKJ-160" value="id" style="shape=partialRectangle;connectable=0;fillColor=none;top=0;left=0;bottom=0;right=0;align=left;spacingLeft=6;fontStyle=5;overflow=hidden;whiteSpace=wrap;html=1;labelBackgroundColor=none;rounded=1;strokeColor=#909090;fontColor=#1A1A1A;" parent="cpMW9dsYbDHmic7fBCKJ-158" vertex="1">
          <mxGeometry x="28.47368421052647" width="151.52631578947353" height="30" as="geometry">
            <mxRectangle width="151.52631578947353" height="30" as="alternateBounds" />
          </mxGeometry>
        </mxCell>
        <mxCell id="cpMW9dsYbDHmic7fBCKJ-161" value="" style="shape=tableRow;horizontal=0;startSize=0;swimlaneHead=0;swimlaneBody=0;fillColor=none;collapsible=0;dropTarget=0;points=[[0,0.5],[1,0.5]];portConstraint=eastwest;top=0;left=0;right=0;bottom=0;labelBackgroundColor=none;rounded=1;strokeColor=#909090;fontColor=#1A1A1A;" parent="cpMW9dsYbDHmic7fBCKJ-157" vertex="1">
          <mxGeometry y="60" width="180" height="30" as="geometry" />
        </mxCell>
        <mxCell id="cpMW9dsYbDHmic7fBCKJ-162" value="FK" style="shape=partialRectangle;connectable=0;fillColor=none;top=0;left=0;bottom=0;right=0;editable=1;overflow=hidden;whiteSpace=wrap;html=1;labelBackgroundColor=none;rounded=1;strokeColor=#909090;fontColor=#1A1A1A;" parent="cpMW9dsYbDHmic7fBCKJ-161" vertex="1">
          <mxGeometry width="28.47368421052647" height="30" as="geometry">
            <mxRectangle width="28.47368421052647" height="30" as="alternateBounds" />
          </mxGeometry>
        </mxCell>
        <mxCell id="cpMW9dsYbDHmic7fBCKJ-163" value="role_id(role)" style="shape=partialRectangle;connectable=0;fillColor=none;top=0;left=0;bottom=0;right=0;align=left;spacingLeft=6;overflow=hidden;whiteSpace=wrap;html=1;labelBackgroundColor=none;rounded=1;strokeColor=#909090;fontColor=#1A1A1A;" parent="cpMW9dsYbDHmic7fBCKJ-161" vertex="1">
          <mxGeometry x="28.47368421052647" width="151.52631578947353" height="30" as="geometry">
            <mxRectangle width="151.52631578947353" height="30" as="alternateBounds" />
          </mxGeometry>
        </mxCell>
        <mxCell id="cpMW9dsYbDHmic7fBCKJ-164" value="" style="shape=tableRow;horizontal=0;startSize=0;swimlaneHead=0;swimlaneBody=0;fillColor=none;collapsible=0;dropTarget=0;points=[[0,0.5],[1,0.5]];portConstraint=eastwest;top=0;left=0;right=0;bottom=0;labelBackgroundColor=none;rounded=1;strokeColor=#909090;fontColor=#1A1A1A;" parent="cpMW9dsYbDHmic7fBCKJ-157" vertex="1">
          <mxGeometry y="90" width="180" height="30" as="geometry" />
        </mxCell>
        <mxCell id="cpMW9dsYbDHmic7fBCKJ-165" value="" style="shape=partialRectangle;connectable=0;fillColor=none;top=0;left=0;bottom=0;right=0;editable=1;overflow=hidden;whiteSpace=wrap;html=1;labelBackgroundColor=none;rounded=1;strokeColor=#909090;fontColor=#1A1A1A;" parent="cpMW9dsYbDHmic7fBCKJ-164" vertex="1">
          <mxGeometry width="28.47368421052647" height="30" as="geometry">
            <mxRectangle width="28.47368421052647" height="30" as="alternateBounds" />
          </mxGeometry>
        </mxCell>
        <mxCell id="cpMW9dsYbDHmic7fBCKJ-166" value="allowd_enter_time" style="shape=partialRectangle;connectable=0;fillColor=none;top=0;left=0;bottom=0;right=0;align=left;spacingLeft=6;overflow=hidden;whiteSpace=wrap;html=1;labelBackgroundColor=none;rounded=1;strokeColor=#909090;fontColor=#1A1A1A;" parent="cpMW9dsYbDHmic7fBCKJ-164" vertex="1">
          <mxGeometry x="28.47368421052647" width="151.52631578947353" height="30" as="geometry">
            <mxRectangle width="151.52631578947353" height="30" as="alternateBounds" />
          </mxGeometry>
        </mxCell>
        <mxCell id="cpMW9dsYbDHmic7fBCKJ-167" value="" style="shape=tableRow;horizontal=0;startSize=0;swimlaneHead=0;swimlaneBody=0;fillColor=none;collapsible=0;dropTarget=0;points=[[0,0.5],[1,0.5]];portConstraint=eastwest;top=0;left=0;right=0;bottom=0;labelBackgroundColor=none;rounded=1;strokeColor=#909090;fontColor=#1A1A1A;" parent="cpMW9dsYbDHmic7fBCKJ-157" vertex="1">
          <mxGeometry y="120" width="180" height="30" as="geometry" />
        </mxCell>
        <mxCell id="cpMW9dsYbDHmic7fBCKJ-168" value="" style="shape=partialRectangle;connectable=0;fillColor=none;top=0;left=0;bottom=0;right=0;editable=1;overflow=hidden;whiteSpace=wrap;html=1;labelBackgroundColor=none;rounded=1;strokeColor=#909090;fontColor=#1A1A1A;" parent="cpMW9dsYbDHmic7fBCKJ-167" vertex="1">
          <mxGeometry width="28.47368421052647" height="30" as="geometry">
            <mxRectangle width="28.47368421052647" height="30" as="alternateBounds" />
          </mxGeometry>
        </mxCell>
        <mxCell id="cpMW9dsYbDHmic7fBCKJ-169" value="allowd_exit_time" style="shape=partialRectangle;connectable=0;fillColor=none;top=0;left=0;bottom=0;right=0;align=left;spacingLeft=6;overflow=hidden;whiteSpace=wrap;html=1;labelBackgroundColor=none;rounded=1;strokeColor=#909090;fontColor=#1A1A1A;" parent="cpMW9dsYbDHmic7fBCKJ-167" vertex="1">
          <mxGeometry x="28.47368421052647" width="151.52631578947353" height="30" as="geometry">
            <mxRectangle width="151.52631578947353" height="30" as="alternateBounds" />
          </mxGeometry>
        </mxCell>
        <mxCell id="9TQ8Ru5qlqeJFAq3GtRZ-38" style="shape=tableRow;horizontal=0;startSize=0;swimlaneHead=0;swimlaneBody=0;fillColor=none;collapsible=0;dropTarget=0;points=[[0,0.5],[1,0.5]];portConstraint=eastwest;top=0;left=0;right=0;bottom=0;labelBackgroundColor=none;rounded=1;strokeColor=#909090;fontColor=#1A1A1A;" parent="cpMW9dsYbDHmic7fBCKJ-157" vertex="1">
          <mxGeometry y="150" width="180" height="30" as="geometry" />
        </mxCell>
        <mxCell id="9TQ8Ru5qlqeJFAq3GtRZ-39" style="shape=partialRectangle;connectable=0;fillColor=none;top=0;left=0;bottom=0;right=0;editable=1;overflow=hidden;whiteSpace=wrap;html=1;labelBackgroundColor=none;rounded=1;strokeColor=#909090;fontColor=#1A1A1A;" parent="9TQ8Ru5qlqeJFAq3GtRZ-38" vertex="1">
          <mxGeometry width="28.47368421052647" height="30" as="geometry">
            <mxRectangle width="28.47368421052647" height="30" as="alternateBounds" />
          </mxGeometry>
        </mxCell>
        <mxCell id="9TQ8Ru5qlqeJFAq3GtRZ-40" value="end_of_permission" style="shape=partialRectangle;connectable=0;fillColor=none;top=0;left=0;bottom=0;right=0;align=left;spacingLeft=6;overflow=hidden;whiteSpace=wrap;html=1;labelBackgroundColor=none;rounded=1;strokeColor=#909090;fontColor=#1A1A1A;" parent="9TQ8Ru5qlqeJFAq3GtRZ-38" vertex="1">
          <mxGeometry x="28.47368421052647" width="151.52631578947353" height="30" as="geometry">
            <mxRectangle width="151.52631578947353" height="30" as="alternateBounds" />
          </mxGeometry>
        </mxCell>
        <mxCell id="cpMW9dsYbDHmic7fBCKJ-173" value="" style="edgeStyle=elbowEdgeStyle;fontSize=12;html=1;endArrow=ERoneToMany;rounded=1;exitX=1;exitY=0.5;exitDx=0;exitDy=0;entryX=0;entryY=0.5;entryDx=0;entryDy=0;labelBackgroundColor=none;fontColor=default;strokeColor=#182E3E;" parent="1" source="cpMW9dsYbDHmic7fBCKJ-158" target="cpMW9dsYbDHmic7fBCKJ-170" edge="1">
          <mxGeometry width="100" height="100" relative="1" as="geometry">
            <mxPoint x="-780" y="-70" as="sourcePoint" />
            <mxPoint x="-280" y="-40" as="targetPoint" />
            <Array as="points">
              <mxPoint x="-398" y="353" />
            </Array>
          </mxGeometry>
        </mxCell>
        <mxCell id="cpMW9dsYbDHmic7fBCKJ-174" value="" style="edgeStyle=elbowEdgeStyle;fontSize=12;html=1;endArrow=ERoneToMany;rounded=1;entryX=0;entryY=0.5;entryDx=0;entryDy=0;elbow=vertical;exitX=0;exitY=0.5;exitDx=0;exitDy=0;labelBackgroundColor=none;fontColor=default;strokeColor=#182E3E;" parent="1" source="9TQ8Ru5qlqeJFAq3GtRZ-79" target="cpMW9dsYbDHmic7fBCKJ-94" edge="1">
          <mxGeometry width="100" height="100" relative="1" as="geometry">
            <mxPoint x="-600" y="50" as="sourcePoint" />
            <mxPoint x="-500" y="820" as="targetPoint" />
            <Array as="points">
              <mxPoint x="-550" y="775" />
            </Array>
          </mxGeometry>
        </mxCell>
        <mxCell id="cpMW9dsYbDHmic7fBCKJ-176" value="" style="edgeStyle=elbowEdgeStyle;fontSize=12;html=1;endArrow=ERoneToMany;rounded=1;exitX=0;exitY=0.5;exitDx=0;exitDy=0;entryX=0;entryY=0.5;entryDx=0;entryDy=0;labelBackgroundColor=none;fontColor=default;strokeColor=#182E3E;" parent="1" source="cpMW9dsYbDHmic7fBCKJ-161" target="cpMW9dsYbDHmic7fBCKJ-2" edge="1">
          <mxGeometry width="100" height="100" relative="1" as="geometry">
            <mxPoint x="-1275" y="510" as="sourcePoint" />
            <mxPoint x="-1175" y="410" as="targetPoint" />
            <Array as="points">
              <mxPoint x="-1200" y="320" />
            </Array>
          </mxGeometry>
        </mxCell>
        <mxCell id="9TQ8Ru5qlqeJFAq3GtRZ-4" value="transaction_event" style="shape=table;startSize=30;container=1;collapsible=1;childLayout=tableLayout;fixedRows=1;rowLines=0;fontStyle=1;align=center;resizeLast=1;html=1;labelBackgroundColor=none;rounded=1;fillColor=#F5AB50;strokeColor=#909090;fontColor=#1A1A1A;" parent="1" vertex="1">
          <mxGeometry x="-56" y="550" width="382" height="150" as="geometry" />
        </mxCell>
        <mxCell id="9TQ8Ru5qlqeJFAq3GtRZ-5" value="" style="shape=tableRow;horizontal=0;startSize=0;swimlaneHead=0;swimlaneBody=0;fillColor=none;collapsible=0;dropTarget=0;points=[[0,0.5],[1,0.5]];portConstraint=eastwest;top=0;left=0;right=0;bottom=1;labelBackgroundColor=none;rounded=1;strokeColor=#909090;fontColor=#1A1A1A;" parent="9TQ8Ru5qlqeJFAq3GtRZ-4" vertex="1">
          <mxGeometry y="30" width="382" height="30" as="geometry" />
        </mxCell>
        <mxCell id="9TQ8Ru5qlqeJFAq3GtRZ-6" value="PK" style="shape=partialRectangle;connectable=0;fillColor=none;top=0;left=0;bottom=0;right=0;fontStyle=1;overflow=hidden;whiteSpace=wrap;html=1;labelBackgroundColor=none;rounded=1;strokeColor=#909090;fontColor=#1A1A1A;" parent="9TQ8Ru5qlqeJFAq3GtRZ-5" vertex="1">
          <mxGeometry width="30" height="30" as="geometry">
            <mxRectangle width="30" height="30" as="alternateBounds" />
          </mxGeometry>
        </mxCell>
        <mxCell id="9TQ8Ru5qlqeJFAq3GtRZ-7" value="id" style="shape=partialRectangle;connectable=0;fillColor=none;top=0;left=0;bottom=0;right=0;align=left;spacingLeft=6;fontStyle=5;overflow=hidden;whiteSpace=wrap;html=1;labelBackgroundColor=none;rounded=1;strokeColor=#909090;fontColor=#1A1A1A;" parent="9TQ8Ru5qlqeJFAq3GtRZ-5" vertex="1">
          <mxGeometry x="30" width="352" height="30" as="geometry">
            <mxRectangle width="352" height="30" as="alternateBounds" />
          </mxGeometry>
        </mxCell>
        <mxCell id="9TQ8Ru5qlqeJFAq3GtRZ-11" value="" style="shape=tableRow;horizontal=0;startSize=0;swimlaneHead=0;swimlaneBody=0;fillColor=none;collapsible=0;dropTarget=0;points=[[0,0.5],[1,0.5]];portConstraint=eastwest;top=0;left=0;right=0;bottom=0;labelBackgroundColor=none;rounded=1;strokeColor=#909090;fontColor=#1A1A1A;" parent="9TQ8Ru5qlqeJFAq3GtRZ-4" vertex="1">
          <mxGeometry y="60" width="382" height="30" as="geometry" />
        </mxCell>
        <mxCell id="9TQ8Ru5qlqeJFAq3GtRZ-12" value="" style="shape=partialRectangle;connectable=0;fillColor=none;top=0;left=0;bottom=0;right=0;editable=1;overflow=hidden;whiteSpace=wrap;html=1;labelBackgroundColor=none;rounded=1;strokeColor=#909090;fontColor=#1A1A1A;" parent="9TQ8Ru5qlqeJFAq3GtRZ-11" vertex="1">
          <mxGeometry width="30" height="30" as="geometry">
            <mxRectangle width="30" height="30" as="alternateBounds" />
          </mxGeometry>
        </mxCell>
        <mxCell id="9TQ8Ru5qlqeJFAq3GtRZ-13" value="state(&lt;span class=&quot;hljs-string&quot;&gt;&#39;AUTHORIZING&#39;&lt;/span&gt;, &lt;span class=&quot;hljs-string&quot;&gt;&#39;APPROVED&#39;&lt;/span&gt;, &lt;span class=&quot;hljs-string&quot;&gt;&#39;DENIED&#39;&lt;/span&gt;, &lt;span class=&quot;hljs-string&quot;&gt;&#39;ERROR&#39;&lt;/span&gt;, &lt;span class=&quot;hljs-string&quot;&gt;&#39;ENTERED&#39;&lt;/span&gt;, &lt;span class=&quot;hljs-string&quot;&gt;&#39;EXITED&#39;&lt;/span&gt;)" style="shape=partialRectangle;connectable=0;fillColor=none;top=0;left=0;bottom=0;right=0;align=left;spacingLeft=6;overflow=hidden;whiteSpace=wrap;html=1;labelBackgroundColor=none;rounded=1;strokeColor=#909090;fontColor=#1A1A1A;" parent="9TQ8Ru5qlqeJFAq3GtRZ-11" vertex="1">
          <mxGeometry x="30" width="352" height="30" as="geometry">
            <mxRectangle width="352" height="30" as="alternateBounds" />
          </mxGeometry>
        </mxCell>
        <mxCell id="9TQ8Ru5qlqeJFAq3GtRZ-14" value="" style="shape=tableRow;horizontal=0;startSize=0;swimlaneHead=0;swimlaneBody=0;fillColor=none;collapsible=0;dropTarget=0;points=[[0,0.5],[1,0.5]];portConstraint=eastwest;top=0;left=0;right=0;bottom=0;labelBackgroundColor=none;rounded=1;strokeColor=#909090;fontColor=#1A1A1A;" parent="9TQ8Ru5qlqeJFAq3GtRZ-4" vertex="1">
          <mxGeometry y="90" width="382" height="30" as="geometry" />
        </mxCell>
        <mxCell id="9TQ8Ru5qlqeJFAq3GtRZ-15" value="FK" style="shape=partialRectangle;connectable=0;fillColor=none;top=0;left=0;bottom=0;right=0;editable=1;overflow=hidden;whiteSpace=wrap;html=1;labelBackgroundColor=none;rounded=1;strokeColor=#909090;fontColor=#1A1A1A;" parent="9TQ8Ru5qlqeJFAq3GtRZ-14" vertex="1">
          <mxGeometry width="30" height="30" as="geometry">
            <mxRectangle width="30" height="30" as="alternateBounds" />
          </mxGeometry>
        </mxCell>
        <mxCell id="9TQ8Ru5qlqeJFAq3GtRZ-16" value="transaction_id(transaction)" style="shape=partialRectangle;connectable=0;fillColor=none;top=0;left=0;bottom=0;right=0;align=left;spacingLeft=6;overflow=hidden;whiteSpace=wrap;html=1;labelBackgroundColor=none;rounded=1;strokeColor=#909090;fontColor=#1A1A1A;" parent="9TQ8Ru5qlqeJFAq3GtRZ-14" vertex="1">
          <mxGeometry x="30" width="352" height="30" as="geometry">
            <mxRectangle width="352" height="30" as="alternateBounds" />
          </mxGeometry>
        </mxCell>
        <mxCell id="9TQ8Ru5qlqeJFAq3GtRZ-31" style="shape=tableRow;horizontal=0;startSize=0;swimlaneHead=0;swimlaneBody=0;fillColor=none;collapsible=0;dropTarget=0;points=[[0,0.5],[1,0.5]];portConstraint=eastwest;top=0;left=0;right=0;bottom=0;labelBackgroundColor=none;rounded=1;strokeColor=#909090;fontColor=#1A1A1A;" parent="9TQ8Ru5qlqeJFAq3GtRZ-4" vertex="1">
          <mxGeometry y="120" width="382" height="30" as="geometry" />
        </mxCell>
        <mxCell id="9TQ8Ru5qlqeJFAq3GtRZ-32" style="shape=partialRectangle;connectable=0;fillColor=none;top=0;left=0;bottom=0;right=0;editable=1;overflow=hidden;whiteSpace=wrap;html=1;labelBackgroundColor=none;rounded=1;strokeColor=#909090;fontColor=#1A1A1A;" parent="9TQ8Ru5qlqeJFAq3GtRZ-31" vertex="1">
          <mxGeometry width="30" height="30" as="geometry">
            <mxRectangle width="30" height="30" as="alternateBounds" />
          </mxGeometry>
        </mxCell>
        <mxCell id="9TQ8Ru5qlqeJFAq3GtRZ-33" value="created_at" style="shape=partialRectangle;connectable=0;fillColor=none;top=0;left=0;bottom=0;right=0;align=left;spacingLeft=6;overflow=hidden;whiteSpace=wrap;html=1;labelBackgroundColor=none;rounded=1;strokeColor=#909090;fontColor=#1A1A1A;" parent="9TQ8Ru5qlqeJFAq3GtRZ-31" vertex="1">
          <mxGeometry x="30" width="352" height="30" as="geometry">
            <mxRectangle width="352" height="30" as="alternateBounds" />
          </mxGeometry>
        </mxCell>
        <mxCell id="9TQ8Ru5qlqeJFAq3GtRZ-30" value="" style="edgeStyle=entityRelationEdgeStyle;fontSize=12;html=1;endArrow=ERoneToMany;rounded=0;exitX=1;exitY=0.5;exitDx=0;exitDy=0;entryX=0;entryY=0.5;entryDx=0;entryDy=0;labelBackgroundColor=none;strokeColor=#182E3E;fontColor=default;" parent="1" source="cpMW9dsYbDHmic7fBCKJ-28" target="9TQ8Ru5qlqeJFAq3GtRZ-14" edge="1">
          <mxGeometry width="100" height="100" relative="1" as="geometry">
            <mxPoint x="-166" y="522" as="sourcePoint" />
            <mxPoint x="-66" y="422" as="targetPoint" />
          </mxGeometry>
        </mxCell>
        <mxCell id="9TQ8Ru5qlqeJFAq3GtRZ-41" value="visitors" style="shape=table;startSize=30;container=1;collapsible=1;childLayout=tableLayout;fixedRows=1;rowLines=0;fontStyle=1;align=center;resizeLast=1;html=1;labelBackgroundColor=none;rounded=1;fillColor=#F5AB50;strokeColor=#909090;fontColor=#1A1A1A;" parent="1" vertex="1">
          <mxGeometry x="-56" y="-11" width="180" height="150" as="geometry" />
        </mxCell>
        <mxCell id="9TQ8Ru5qlqeJFAq3GtRZ-42" value="" style="shape=tableRow;horizontal=0;startSize=0;swimlaneHead=0;swimlaneBody=0;fillColor=none;collapsible=0;dropTarget=0;points=[[0,0.5],[1,0.5]];portConstraint=eastwest;top=0;left=0;right=0;bottom=1;labelBackgroundColor=none;rounded=1;strokeColor=#909090;fontColor=#1A1A1A;" parent="9TQ8Ru5qlqeJFAq3GtRZ-41" vertex="1">
          <mxGeometry y="30" width="180" height="30" as="geometry" />
        </mxCell>
        <mxCell id="9TQ8Ru5qlqeJFAq3GtRZ-43" value="PK" style="shape=partialRectangle;connectable=0;fillColor=none;top=0;left=0;bottom=0;right=0;fontStyle=1;overflow=hidden;whiteSpace=wrap;html=1;labelBackgroundColor=none;rounded=1;strokeColor=#909090;fontColor=#1A1A1A;" parent="9TQ8Ru5qlqeJFAq3GtRZ-42" vertex="1">
          <mxGeometry width="30" height="30" as="geometry">
            <mxRectangle width="30" height="30" as="alternateBounds" />
          </mxGeometry>
        </mxCell>
        <mxCell id="9TQ8Ru5qlqeJFAq3GtRZ-44" value="id" style="shape=partialRectangle;connectable=0;fillColor=none;top=0;left=0;bottom=0;right=0;align=left;spacingLeft=6;fontStyle=5;overflow=hidden;whiteSpace=wrap;html=1;labelBackgroundColor=none;rounded=1;strokeColor=#909090;fontColor=#1A1A1A;" parent="9TQ8Ru5qlqeJFAq3GtRZ-42" vertex="1">
          <mxGeometry x="30" width="150" height="30" as="geometry">
            <mxRectangle width="150" height="30" as="alternateBounds" />
          </mxGeometry>
        </mxCell>
        <mxCell id="9TQ8Ru5qlqeJFAq3GtRZ-103" style="shape=tableRow;horizontal=0;startSize=0;swimlaneHead=0;swimlaneBody=0;fillColor=none;collapsible=0;dropTarget=0;points=[[0,0.5],[1,0.5]];portConstraint=eastwest;top=0;left=0;right=0;bottom=0;labelBackgroundColor=none;rounded=1;strokeColor=#909090;fontColor=#1A1A1A;" parent="9TQ8Ru5qlqeJFAq3GtRZ-41" vertex="1">
          <mxGeometry y="60" width="180" height="30" as="geometry" />
        </mxCell>
        <mxCell id="9TQ8Ru5qlqeJFAq3GtRZ-104" value="FK" style="shape=partialRectangle;connectable=0;fillColor=none;top=0;left=0;bottom=0;right=0;editable=1;overflow=hidden;whiteSpace=wrap;html=1;labelBackgroundColor=none;rounded=1;strokeColor=#909090;fontColor=#1A1A1A;" parent="9TQ8Ru5qlqeJFAq3GtRZ-103" vertex="1">
          <mxGeometry width="30" height="30" as="geometry">
            <mxRectangle width="30" height="30" as="alternateBounds" />
          </mxGeometry>
        </mxCell>
        <mxCell id="9TQ8Ru5qlqeJFAq3GtRZ-105" value="user_id(users)" style="shape=partialRectangle;connectable=0;fillColor=none;top=0;left=0;bottom=0;right=0;align=left;spacingLeft=6;overflow=hidden;whiteSpace=wrap;html=1;labelBackgroundColor=none;rounded=1;strokeColor=#909090;fontColor=#1A1A1A;" parent="9TQ8Ru5qlqeJFAq3GtRZ-103" vertex="1">
          <mxGeometry x="30" width="150" height="30" as="geometry">
            <mxRectangle width="150" height="30" as="alternateBounds" />
          </mxGeometry>
        </mxCell>
        <mxCell id="9TQ8Ru5qlqeJFAq3GtRZ-60" style="shape=tableRow;horizontal=0;startSize=0;swimlaneHead=0;swimlaneBody=0;fillColor=none;collapsible=0;dropTarget=0;points=[[0,0.5],[1,0.5]];portConstraint=eastwest;top=0;left=0;right=0;bottom=0;labelBackgroundColor=none;rounded=1;strokeColor=#909090;fontColor=#1A1A1A;" parent="9TQ8Ru5qlqeJFAq3GtRZ-41" vertex="1">
          <mxGeometry y="90" width="180" height="30" as="geometry" />
        </mxCell>
        <mxCell id="9TQ8Ru5qlqeJFAq3GtRZ-61" value="FK" style="shape=partialRectangle;connectable=0;fillColor=none;top=0;left=0;bottom=0;right=0;editable=1;overflow=hidden;whiteSpace=wrap;html=1;labelBackgroundColor=none;rounded=1;strokeColor=#909090;fontColor=#1A1A1A;" parent="9TQ8Ru5qlqeJFAq3GtRZ-60" vertex="1">
          <mxGeometry width="30" height="30" as="geometry">
            <mxRectangle width="30" height="30" as="alternateBounds" />
          </mxGeometry>
        </mxCell>
        <mxCell id="9TQ8Ru5qlqeJFAq3GtRZ-62" value="permission_id(permission)" style="shape=partialRectangle;connectable=0;fillColor=none;top=0;left=0;bottom=0;right=0;align=left;spacingLeft=6;overflow=hidden;whiteSpace=wrap;html=1;labelBackgroundColor=none;rounded=1;strokeColor=#909090;fontColor=#1A1A1A;" parent="9TQ8Ru5qlqeJFAq3GtRZ-60" vertex="1">
          <mxGeometry x="30" width="150" height="30" as="geometry">
            <mxRectangle width="150" height="30" as="alternateBounds" />
          </mxGeometry>
        </mxCell>
        <mxCell id="EQWb0ifCRzdz0aqyqIC9-27" style="shape=tableRow;horizontal=0;startSize=0;swimlaneHead=0;swimlaneBody=0;fillColor=none;collapsible=0;dropTarget=0;points=[[0,0.5],[1,0.5]];portConstraint=eastwest;top=0;left=0;right=0;bottom=0;labelBackgroundColor=none;rounded=1;strokeColor=#909090;fontColor=#1A1A1A;" vertex="1" parent="9TQ8Ru5qlqeJFAq3GtRZ-41">
          <mxGeometry y="120" width="180" height="30" as="geometry" />
        </mxCell>
        <mxCell id="EQWb0ifCRzdz0aqyqIC9-28" value="FK" style="shape=partialRectangle;connectable=0;fillColor=none;top=0;left=0;bottom=0;right=0;editable=1;overflow=hidden;whiteSpace=wrap;html=1;labelBackgroundColor=none;rounded=1;strokeColor=#909090;fontColor=#1A1A1A;" vertex="1" parent="EQWb0ifCRzdz0aqyqIC9-27">
          <mxGeometry width="30" height="30" as="geometry">
            <mxRectangle width="30" height="30" as="alternateBounds" />
          </mxGeometry>
        </mxCell>
        <mxCell id="EQWb0ifCRzdz0aqyqIC9-29" value="badge_id(badge)" style="shape=partialRectangle;connectable=0;fillColor=none;top=0;left=0;bottom=0;right=0;align=left;spacingLeft=6;overflow=hidden;whiteSpace=wrap;html=1;labelBackgroundColor=none;rounded=1;strokeColor=#909090;fontColor=#1A1A1A;" vertex="1" parent="EQWb0ifCRzdz0aqyqIC9-27">
          <mxGeometry x="30" width="150" height="30" as="geometry">
            <mxRectangle width="150" height="30" as="alternateBounds" />
          </mxGeometry>
        </mxCell>
        <mxCell id="9TQ8Ru5qlqeJFAq3GtRZ-75" style="shape=tableRow;horizontal=0;startSize=0;swimlaneHead=0;swimlaneBody=0;fillColor=none;collapsible=0;dropTarget=0;points=[[0,0.5],[1,0.5]];portConstraint=eastwest;top=0;left=0;right=0;bottom=0;labelBackgroundColor=none;rounded=1;strokeColor=#909090;fontColor=#1A1A1A;" parent="1" vertex="1">
          <mxGeometry x="-20" y="266" width="180" height="30" as="geometry" />
        </mxCell>
        <mxCell id="9TQ8Ru5qlqeJFAq3GtRZ-78" value="users" style="shape=table;startSize=29;container=1;collapsible=1;childLayout=tableLayout;fixedRows=1;rowLines=0;fontStyle=1;align=center;resizeLast=1;html=1;labelBackgroundColor=none;rounded=1;fillColor=#F5AB50;strokeColor=#909090;fontColor=#1A1A1A;arcSize=50;" parent="1" vertex="1">
          <mxGeometry x="-292" y="-239" width="180" height="180" as="geometry" />
        </mxCell>
        <mxCell id="9TQ8Ru5qlqeJFAq3GtRZ-79" value="" style="shape=tableRow;horizontal=0;startSize=0;swimlaneHead=0;swimlaneBody=0;fillColor=none;collapsible=0;dropTarget=0;points=[[0,0.5],[1,0.5]];portConstraint=eastwest;top=0;left=0;right=0;bottom=1;labelBackgroundColor=none;rounded=1;strokeColor=#909090;fontColor=#1A1A1A;" parent="9TQ8Ru5qlqeJFAq3GtRZ-78" vertex="1">
          <mxGeometry y="29" width="180" height="30" as="geometry" />
        </mxCell>
        <mxCell id="9TQ8Ru5qlqeJFAq3GtRZ-80" value="PK" style="shape=partialRectangle;connectable=0;fillColor=none;top=0;left=0;bottom=0;right=0;fontStyle=1;overflow=hidden;whiteSpace=wrap;html=1;labelBackgroundColor=none;rounded=1;strokeColor=#909090;fontColor=#1A1A1A;" parent="9TQ8Ru5qlqeJFAq3GtRZ-79" vertex="1">
          <mxGeometry width="30" height="30" as="geometry">
            <mxRectangle width="30" height="30" as="alternateBounds" />
          </mxGeometry>
        </mxCell>
        <mxCell id="9TQ8Ru5qlqeJFAq3GtRZ-81" value="id" style="shape=partialRectangle;connectable=0;fillColor=none;top=0;left=0;bottom=0;right=0;align=left;spacingLeft=6;fontStyle=5;overflow=hidden;whiteSpace=wrap;html=1;labelBackgroundColor=none;rounded=1;strokeColor=#909090;fontColor=#1A1A1A;" parent="9TQ8Ru5qlqeJFAq3GtRZ-79" vertex="1">
          <mxGeometry x="30" width="150" height="30" as="geometry">
            <mxRectangle width="150" height="30" as="alternateBounds" />
          </mxGeometry>
        </mxCell>
        <mxCell id="9TQ8Ru5qlqeJFAq3GtRZ-82" value="" style="shape=tableRow;horizontal=0;startSize=0;swimlaneHead=0;swimlaneBody=0;fillColor=none;collapsible=0;dropTarget=0;points=[[0,0.5],[1,0.5]];portConstraint=eastwest;top=0;left=0;right=0;bottom=0;labelBackgroundColor=none;rounded=1;strokeColor=#909090;fontColor=#1A1A1A;" parent="9TQ8Ru5qlqeJFAq3GtRZ-78" vertex="1">
          <mxGeometry y="59" width="180" height="30" as="geometry" />
        </mxCell>
        <mxCell id="9TQ8Ru5qlqeJFAq3GtRZ-83" value="" style="shape=partialRectangle;connectable=0;fillColor=none;top=0;left=0;bottom=0;right=0;editable=1;overflow=hidden;whiteSpace=wrap;html=1;labelBackgroundColor=none;rounded=1;strokeColor=#909090;fontColor=#1A1A1A;" parent="9TQ8Ru5qlqeJFAq3GtRZ-82" vertex="1">
          <mxGeometry width="30" height="30" as="geometry">
            <mxRectangle width="30" height="30" as="alternateBounds" />
          </mxGeometry>
        </mxCell>
        <mxCell id="9TQ8Ru5qlqeJFAq3GtRZ-84" value="name" style="shape=partialRectangle;connectable=0;fillColor=none;top=0;left=0;bottom=0;right=0;align=left;spacingLeft=6;overflow=hidden;whiteSpace=wrap;html=1;labelBackgroundColor=none;rounded=1;strokeColor=#909090;fontColor=#1A1A1A;" parent="9TQ8Ru5qlqeJFAq3GtRZ-82" vertex="1">
          <mxGeometry x="30" width="150" height="30" as="geometry">
            <mxRectangle width="150" height="30" as="alternateBounds" />
          </mxGeometry>
        </mxCell>
        <mxCell id="9TQ8Ru5qlqeJFAq3GtRZ-94" style="shape=tableRow;horizontal=0;startSize=0;swimlaneHead=0;swimlaneBody=0;fillColor=none;collapsible=0;dropTarget=0;points=[[0,0.5],[1,0.5]];portConstraint=eastwest;top=0;left=0;right=0;bottom=0;labelBackgroundColor=none;rounded=1;strokeColor=#909090;fontColor=#1A1A1A;" parent="9TQ8Ru5qlqeJFAq3GtRZ-78" vertex="1">
          <mxGeometry y="89" width="180" height="30" as="geometry" />
        </mxCell>
        <mxCell id="9TQ8Ru5qlqeJFAq3GtRZ-95" style="shape=partialRectangle;connectable=0;fillColor=none;top=0;left=0;bottom=0;right=0;editable=1;overflow=hidden;whiteSpace=wrap;html=1;labelBackgroundColor=none;rounded=1;strokeColor=#909090;fontColor=#1A1A1A;" parent="9TQ8Ru5qlqeJFAq3GtRZ-94" vertex="1">
          <mxGeometry width="30" height="30" as="geometry">
            <mxRectangle width="30" height="30" as="alternateBounds" />
          </mxGeometry>
        </mxCell>
        <mxCell id="9TQ8Ru5qlqeJFAq3GtRZ-96" value="type" style="shape=partialRectangle;connectable=0;fillColor=none;top=0;left=0;bottom=0;right=0;align=left;spacingLeft=6;overflow=hidden;whiteSpace=wrap;html=1;labelBackgroundColor=none;rounded=1;strokeColor=#909090;fontColor=#1A1A1A;" parent="9TQ8Ru5qlqeJFAq3GtRZ-94" vertex="1">
          <mxGeometry x="30" width="150" height="30" as="geometry">
            <mxRectangle width="150" height="30" as="alternateBounds" />
          </mxGeometry>
        </mxCell>
        <mxCell id="9TQ8Ru5qlqeJFAq3GtRZ-85" value="" style="shape=tableRow;horizontal=0;startSize=0;swimlaneHead=0;swimlaneBody=0;fillColor=none;collapsible=0;dropTarget=0;points=[[0,0.5],[1,0.5]];portConstraint=eastwest;top=0;left=0;right=0;bottom=0;labelBackgroundColor=none;rounded=1;strokeColor=#909090;fontColor=#1A1A1A;" parent="9TQ8Ru5qlqeJFAq3GtRZ-78" vertex="1">
          <mxGeometry y="119" width="180" height="30" as="geometry" />
        </mxCell>
        <mxCell id="9TQ8Ru5qlqeJFAq3GtRZ-86" value="" style="shape=partialRectangle;connectable=0;fillColor=none;top=0;left=0;bottom=0;right=0;editable=1;overflow=hidden;whiteSpace=wrap;html=1;labelBackgroundColor=none;rounded=1;strokeColor=#909090;fontColor=#1A1A1A;" parent="9TQ8Ru5qlqeJFAq3GtRZ-85" vertex="1">
          <mxGeometry width="30" height="30" as="geometry">
            <mxRectangle width="30" height="30" as="alternateBounds" />
          </mxGeometry>
        </mxCell>
        <mxCell id="9TQ8Ru5qlqeJFAq3GtRZ-87" value="surname" style="shape=partialRectangle;connectable=0;fillColor=none;top=0;left=0;bottom=0;right=0;align=left;spacingLeft=6;overflow=hidden;whiteSpace=wrap;html=1;labelBackgroundColor=none;rounded=1;strokeColor=#909090;fontColor=#1A1A1A;" parent="9TQ8Ru5qlqeJFAq3GtRZ-85" vertex="1">
          <mxGeometry x="30" width="150" height="30" as="geometry">
            <mxRectangle width="150" height="30" as="alternateBounds" />
          </mxGeometry>
        </mxCell>
        <mxCell id="9TQ8Ru5qlqeJFAq3GtRZ-88" value="" style="shape=tableRow;horizontal=0;startSize=0;swimlaneHead=0;swimlaneBody=0;fillColor=none;collapsible=0;dropTarget=0;points=[[0,0.5],[1,0.5]];portConstraint=eastwest;top=0;left=0;right=0;bottom=0;labelBackgroundColor=none;rounded=1;strokeColor=#909090;fontColor=#1A1A1A;" parent="9TQ8Ru5qlqeJFAq3GtRZ-78" vertex="1">
          <mxGeometry y="149" width="180" height="30" as="geometry" />
        </mxCell>
        <mxCell id="9TQ8Ru5qlqeJFAq3GtRZ-89" value="" style="shape=partialRectangle;connectable=0;fillColor=none;top=0;left=0;bottom=0;right=0;editable=1;overflow=hidden;whiteSpace=wrap;html=1;labelBackgroundColor=none;rounded=1;strokeColor=#909090;fontColor=#1A1A1A;" parent="9TQ8Ru5qlqeJFAq3GtRZ-88" vertex="1">
          <mxGeometry width="30" height="30" as="geometry">
            <mxRectangle width="30" height="30" as="alternateBounds" />
          </mxGeometry>
        </mxCell>
        <mxCell id="9TQ8Ru5qlqeJFAq3GtRZ-90" value="email" style="shape=partialRectangle;connectable=0;fillColor=none;top=0;left=0;bottom=0;right=0;align=left;spacingLeft=6;overflow=hidden;whiteSpace=wrap;html=1;labelBackgroundColor=none;rounded=1;strokeColor=#909090;fontColor=#1A1A1A;" parent="9TQ8Ru5qlqeJFAq3GtRZ-88" vertex="1">
          <mxGeometry x="30" width="150" height="30" as="geometry">
            <mxRectangle width="150" height="30" as="alternateBounds" />
          </mxGeometry>
        </mxCell>
        <mxCell id="9TQ8Ru5qlqeJFAq3GtRZ-109" value="" style="edgeStyle=elbowEdgeStyle;fontSize=12;html=1;endArrow=ERoneToMany;rounded=1;exitX=1;exitY=0.5;exitDx=0;exitDy=0;entryX=1;entryY=0.5;entryDx=0;entryDy=0;labelBackgroundColor=none;fontColor=default;strokeColor=#182E3E;" parent="1" source="cpMW9dsYbDHmic7fBCKJ-158" target="9TQ8Ru5qlqeJFAq3GtRZ-60" edge="1">
          <mxGeometry width="100" height="100" relative="1" as="geometry">
            <mxPoint x="-840" y="488" as="sourcePoint" />
            <mxPoint x="-288" y="244" as="targetPoint" />
            <Array as="points">
              <mxPoint x="235" y="457" />
            </Array>
          </mxGeometry>
        </mxCell>
        <mxCell id="9TQ8Ru5qlqeJFAq3GtRZ-113" value="" style="edgeStyle=elbowEdgeStyle;fontSize=12;html=1;endArrow=ERoneToMany;rounded=1;exitX=1;exitY=0.5;exitDx=0;exitDy=0;entryX=1;entryY=0.5;entryDx=0;entryDy=0;elbow=horizontal;labelBackgroundColor=none;fontColor=default;strokeColor=#182E3E;" parent="1" source="9TQ8Ru5qlqeJFAq3GtRZ-79" target="9TQ8Ru5qlqeJFAq3GtRZ-103" edge="1">
          <mxGeometry width="100" height="100" relative="1" as="geometry">
            <mxPoint x="141" y="4" as="sourcePoint" />
            <mxPoint x="237" y="8" as="targetPoint" />
            <Array as="points">
              <mxPoint x="737" y="60" />
            </Array>
          </mxGeometry>
        </mxCell>
        <mxCell id="9TQ8Ru5qlqeJFAq3GtRZ-115" value="" style="edgeStyle=entityRelationEdgeStyle;fontSize=12;html=1;endArrow=ERmandOne;startArrow=ERmandOne;rounded=0;strokeColor=#182E3E;fontColor=#1A1A1A;exitX=1.008;exitY=0.863;exitDx=0;exitDy=0;exitPerimeter=0;entryX=0;entryY=0.5;entryDx=0;entryDy=0;" parent="1" source="9TQ8Ru5qlqeJFAq3GtRZ-79" target="cpMW9dsYbDHmic7fBCKJ-57" edge="1">
          <mxGeometry width="100" height="100" relative="1" as="geometry">
            <mxPoint x="56" y="-46" as="sourcePoint" />
            <mxPoint x="156" y="-146" as="targetPoint" />
          </mxGeometry>
        </mxCell>
        <mxCell id="9TQ8Ru5qlqeJFAq3GtRZ-116" value="" style="edgeStyle=elbowEdgeStyle;fontSize=12;html=1;endArrow=ERoneToMany;rounded=1;exitX=0;exitY=0.5;exitDx=0;exitDy=0;entryX=0;entryY=0.5;entryDx=0;entryDy=0;elbow=horizontal;labelBackgroundColor=none;fontColor=default;strokeColor=#182E3E;" parent="1" source="9TQ8Ru5qlqeJFAq3GtRZ-79" target="9TQ8Ru5qlqeJFAq3GtRZ-100" edge="1">
          <mxGeometry width="100" height="100" relative="1" as="geometry">
            <mxPoint x="-102" y="-185" as="sourcePoint" />
            <mxPoint x="145" y="155" as="targetPoint" />
            <Array as="points">
              <mxPoint x="-431" y="-12" />
            </Array>
          </mxGeometry>
        </mxCell>
        <mxCell id="EQWb0ifCRzdz0aqyqIC9-14" value="badge" style="shape=table;startSize=29;container=1;collapsible=1;childLayout=tableLayout;fixedRows=1;rowLines=0;fontStyle=1;align=center;resizeLast=1;html=1;labelBackgroundColor=none;rounded=1;fillColor=#F5AB50;strokeColor=#909090;fontColor=#1A1A1A;" vertex="1" parent="1">
          <mxGeometry x="-686" y="-354" width="180" height="90" as="geometry" />
        </mxCell>
        <mxCell id="EQWb0ifCRzdz0aqyqIC9-15" value="" style="shape=tableRow;horizontal=0;startSize=0;swimlaneHead=0;swimlaneBody=0;fillColor=none;collapsible=0;dropTarget=0;points=[[0,0.5],[1,0.5]];portConstraint=eastwest;top=0;left=0;right=0;bottom=1;labelBackgroundColor=none;rounded=1;strokeColor=#909090;fontColor=#1A1A1A;" vertex="1" parent="EQWb0ifCRzdz0aqyqIC9-14">
          <mxGeometry y="29" width="180" height="30" as="geometry" />
        </mxCell>
        <mxCell id="EQWb0ifCRzdz0aqyqIC9-16" value="PK" style="shape=partialRectangle;connectable=0;fillColor=none;top=0;left=0;bottom=0;right=0;fontStyle=1;overflow=hidden;whiteSpace=wrap;html=1;labelBackgroundColor=none;rounded=1;strokeColor=#909090;fontColor=#1A1A1A;" vertex="1" parent="EQWb0ifCRzdz0aqyqIC9-15">
          <mxGeometry width="30" height="30" as="geometry">
            <mxRectangle width="30" height="30" as="alternateBounds" />
          </mxGeometry>
        </mxCell>
        <mxCell id="EQWb0ifCRzdz0aqyqIC9-17" value="id&lt;span style=&quot;white-space: pre;&quot;&gt;&#x9;&lt;/span&gt;" style="shape=partialRectangle;connectable=0;fillColor=none;top=0;left=0;bottom=0;right=0;align=left;spacingLeft=6;fontStyle=5;overflow=hidden;whiteSpace=wrap;html=1;labelBackgroundColor=none;rounded=1;strokeColor=#909090;fontColor=#1A1A1A;" vertex="1" parent="EQWb0ifCRzdz0aqyqIC9-15">
          <mxGeometry x="30" width="150" height="30" as="geometry">
            <mxRectangle width="150" height="30" as="alternateBounds" />
          </mxGeometry>
        </mxCell>
        <mxCell id="EQWb0ifCRzdz0aqyqIC9-18" value="" style="shape=tableRow;horizontal=0;startSize=0;swimlaneHead=0;swimlaneBody=0;fillColor=none;collapsible=0;dropTarget=0;points=[[0,0.5],[1,0.5]];portConstraint=eastwest;top=0;left=0;right=0;bottom=0;labelBackgroundColor=none;rounded=1;strokeColor=#909090;fontColor=#1A1A1A;" vertex="1" parent="EQWb0ifCRzdz0aqyqIC9-14">
          <mxGeometry y="59" width="180" height="30" as="geometry" />
        </mxCell>
        <mxCell id="EQWb0ifCRzdz0aqyqIC9-19" value="" style="shape=partialRectangle;connectable=0;fillColor=none;top=0;left=0;bottom=0;right=0;editable=1;overflow=hidden;whiteSpace=wrap;html=1;labelBackgroundColor=none;rounded=1;strokeColor=#909090;fontColor=#1A1A1A;" vertex="1" parent="EQWb0ifCRzdz0aqyqIC9-18">
          <mxGeometry width="30" height="30" as="geometry">
            <mxRectangle width="30" height="30" as="alternateBounds" />
          </mxGeometry>
        </mxCell>
        <mxCell id="EQWb0ifCRzdz0aqyqIC9-20" value="RFID" style="shape=partialRectangle;connectable=0;fillColor=none;top=0;left=0;bottom=0;right=0;align=left;spacingLeft=6;overflow=hidden;whiteSpace=wrap;html=1;labelBackgroundColor=none;rounded=1;strokeColor=#909090;fontColor=#1A1A1A;" vertex="1" parent="EQWb0ifCRzdz0aqyqIC9-18">
          <mxGeometry x="30" width="150" height="30" as="geometry">
            <mxRectangle width="150" height="30" as="alternateBounds" />
          </mxGeometry>
        </mxCell>
        <mxCell id="EQWb0ifCRzdz0aqyqIC9-30" value="" style="edgeStyle=entityRelationEdgeStyle;fontSize=12;html=1;endArrow=ERmandOne;startArrow=ERmandOne;rounded=0;exitX=1;exitY=0.5;exitDx=0;exitDy=0;entryX=0;entryY=0.5;entryDx=0;entryDy=0;" edge="1" parent="1" source="EQWb0ifCRzdz0aqyqIC9-15" target="EQWb0ifCRzdz0aqyqIC9-24">
          <mxGeometry width="100" height="100" relative="1" as="geometry">
            <mxPoint x="-770" y="-302" as="sourcePoint" />
            <mxPoint x="-670" y="-402" as="targetPoint" />
          </mxGeometry>
        </mxCell>
        <mxCell id="EQWb0ifCRzdz0aqyqIC9-31" value="" style="edgeStyle=entityRelationEdgeStyle;fontSize=12;html=1;endArrow=ERmandOne;startArrow=ERmandOne;rounded=0;exitX=1;exitY=0.5;exitDx=0;exitDy=0;entryX=0;entryY=0.5;entryDx=0;entryDy=0;" edge="1" parent="1" source="EQWb0ifCRzdz0aqyqIC9-15" target="EQWb0ifCRzdz0aqyqIC9-27">
          <mxGeometry width="100" height="100" relative="1" as="geometry">
            <mxPoint x="-839" y="-355" as="sourcePoint" />
            <mxPoint x="-275" y="233" as="targetPoint" />
          </mxGeometry>
        </mxCell>
      </root>
    </mxGraphModel>
  </diagram>
</mxfile>
